<svg width="343" height="104" viewBox="0 0 343 104" fill="none" xmlns="http://www.w3.org/2000/svg">
<path d="M180.315 0.0877914C179.94 0.183418 179.458 0.534042 179.243 0.852791C178.949 1.29904 178.118 1.58591 175.867 1.93655C171.714 2.63779 164.371 4.48654 161.156 5.66592C150.866 9.45905 134.627 18.1609 119.888 27.819L115.842 30.4328L111.715 30.6559C91.6713 31.6122 69.6443 34.1303 54.4505 37.1584C40.2213 40.0272 31.8071 42.7684 25.0275 46.7528C17.7119 51.024 17.5244 51.3109 17.7387 57.5903C17.8191 60.0447 18.1407 63.1047 18.5694 65.5272C19.3733 70.0215 19.4537 73.0815 18.8374 76.0778C18.623 77.2572 18.5158 78.6278 18.5962 79.2334C18.8642 80.859 19.8557 83.0265 21.1419 84.7478L22.2674 86.2778H25.1079C28.6719 86.2778 29.7169 86.5965 30.628 87.999C31.4587 89.3059 31.5391 89.3059 40.4357 89.784C43.7585 89.9753 47.2153 90.1984 48.1532 90.294L49.8146 90.4853L49.8414 84.4609C49.8682 81.1778 49.9486 77.6078 50.0558 76.5559L50.2433 74.6434L50.4577 77.8309C50.5649 79.584 50.8329 82.0065 51.0205 83.1859C51.4492 85.6403 53.2982 90.4534 54.7452 92.8122C56.0851 95.0115 58.7915 98.2309 60.185 99.2828C60.8281 99.7609 61.3372 100.207 61.3372 100.303C61.3372 100.398 47.912 100.494 31.5123 100.526C15.1394 100.558 1.31225 100.685 0.856703 100.781C-0.75111 101.132 -0.0543913 101.482 2.5985 101.705C4.01873 101.833 18.5158 102.056 34.8083 102.215C51.3956 102.407 65.062 102.662 65.8927 102.821C66.6966 103.012 67.8489 103.331 68.4384 103.554C70.0462 104.128 75.754 104.032 78.6212 103.363C80.8454 102.853 84.1146 102.789 121.094 102.63C169.087 102.438 254.971 103.012 260.706 103.554C265.771 104.064 270.46 104.032 274.774 103.554C277.213 103.267 287.985 103.076 310.468 102.917C328.181 102.789 342.758 102.598 342.865 102.438C343.696 101.482 342.436 101.418 311.406 101.227C294.363 101.1 280.187 100.908 279.919 100.781C279.544 100.59 279.651 100.398 280.616 99.6334C281.259 99.1234 282.867 97.4022 284.18 95.7766C286.672 92.7165 288.039 90.0072 289.405 85.4809C290.209 82.8353 290.424 75.1215 289.807 71.6153C288.494 64.3159 283.242 56.5384 277.508 53.4465C268.718 48.6972 258.857 50.8009 252.131 58.8334C247.549 64.3159 245.7 69.7665 245.7 77.7672C245.727 85.3853 247.602 90.804 252.265 96.5097C253.256 97.7528 254.704 99.2509 255.454 99.8884L256.82 101.004L199.207 100.813C167.533 100.717 128.892 100.59 113.404 100.59C97.8882 100.558 85.1865 100.462 85.1865 100.335C85.1865 100.207 85.508 99.8884 85.9368 99.6016C87.2498 98.6772 90.2779 95.1709 91.4569 93.1628C94.3778 88.2859 95.5837 83.9509 95.8248 77.3528C96.066 71.2965 96.3608 73.3684 96.6823 83.5047C96.8163 88.0628 96.9771 91.7922 97.0307 91.8559C97.0843 91.9197 130.152 91.8559 170.535 91.7284L243.958 91.5372L244.119 83.409C244.253 76.779 244.387 74.739 244.842 72.3165C245.485 69.0334 246.959 65.0172 248.567 62.1803C250.952 58.0047 255.695 53.7653 260.063 51.8847C264.699 49.8765 271.264 49.749 275.846 51.5659C284.26 54.9128 289.968 63.0409 291.388 73.6234C291.603 75.249 291.844 79.4884 291.951 83.0584L292.139 89.529L293.773 89.3378C294.684 89.2103 299.695 88.3497 304.921 87.3934C310.146 86.4372 316.551 85.3853 319.123 85.0028C324.322 84.2378 327.135 83.6003 328.1 83.0265C328.824 82.5484 333.915 76.1734 334.397 75.1534C334.612 74.6434 334.612 73.8465 334.371 71.9978C334.103 69.8303 334.129 69.0972 334.639 65.7184C334.933 63.6147 335.282 60.1403 335.389 57.9728L335.55 54.0203L334.022 50.4822C332.013 45.7328 331.611 43.6928 331.825 39.4215C331.905 37.5728 332.146 34.7359 332.361 33.1103L332.763 30.1459L331.664 28.2972L330.592 26.4484L326.734 26.2253C324.59 26.0978 320.543 25.6834 317.703 25.2372C314.862 24.8228 310.923 24.3128 308.94 24.1215C305.35 23.739 305.269 23.7072 296.882 20.2328C287.289 16.2165 275.9 11.7222 270.782 9.93717C267.539 8.75779 267.325 8.63029 266.976 7.67404C266.548 6.46279 265.958 6.27155 258.16 4.70967C247.468 2.57404 237.929 1.45842 222.654 0.502167C217.081 0.183418 181.441 -0.167206 180.315 0.0877914ZM228.952 2.73342C240.019 3.81717 253.417 5.98466 261.59 8.02467C263.895 8.59842 264.243 8.91717 263.466 9.80967L262.903 10.479L260.813 9.5228C258.107 8.27967 255.266 7.45092 251.059 6.62217C243.663 5.18779 230.077 3.75342 217.295 3.05217C209.363 2.63779 190.016 2.82904 186.077 3.37092C178.842 4.39091 173.991 5.41092 168.766 7.1003C165.122 8.27967 164.344 8.34342 162.924 7.73779C161.745 7.22779 161.852 7.19592 166.488 5.95279C173.295 4.16779 178.681 3.24342 186.077 2.60592C191.865 2.09592 223.458 2.19154 228.952 2.73342ZM224.932 5.12405C229.97 5.63404 239.027 6.78154 240.555 7.1003C241.466 7.32342 241.948 7.99279 241.519 8.50279C241.385 8.66217 240.448 8.59842 239.376 8.34342C238.304 8.12029 236.562 7.80154 235.49 7.70592C234.391 7.57841 233.078 7.35529 232.569 7.19592C230.024 6.46279 216.223 5.44279 204.138 5.09217C197.76 4.90092 196.099 4.77341 197.867 4.64592C201.833 4.2953 219.76 4.64592 224.932 5.12405ZM251.327 9.17216C260.626 11.1484 265.261 12.6465 282.813 19.3403C300.982 26.2572 308.431 28.5522 315.747 29.4765C317.006 29.604 314.193 29.7634 307.547 29.859C302 29.9547 297.364 30.114 297.257 30.2415C297.15 30.4009 297.15 30.5922 297.257 30.7197C297.364 30.879 303.554 31.1022 311.031 31.2934L324.59 31.6122L325.581 33.8434C326.734 36.4572 327.055 37.509 326.653 37.509C326.492 37.509 326.09 37.1265 325.742 36.6803C324.885 35.469 323.223 34.4172 321.535 34.0347C319.123 33.4609 314.407 33.0465 310.655 33.0465C307.493 33.0465 307.038 33.1103 305.966 33.7797L304.787 34.5447L285.225 34.7678C274.453 34.8953 264.458 35.0865 262.984 35.2459C261.51 35.3734 260.277 35.5009 260.25 35.469C260.224 35.4372 261.376 34.0028 262.796 32.2497C264.216 30.4965 265.851 28.2972 266.387 27.309C266.95 26.3528 267.834 24.8228 268.343 23.9622C269.335 22.3365 269.415 21.699 268.879 19.6909C268.691 19.0215 268.718 18.9897 269.227 19.3084C269.522 19.4997 270.112 19.8184 270.514 20.0097C271.264 20.3284 271.264 20.3284 270.755 19.6909C270.487 19.3084 270.406 19.0215 270.567 19.0215C271.076 19.0215 272.229 20.9659 272.229 21.8265C272.229 22.9103 271.398 24.5678 270.487 25.269C269.951 25.6834 269.871 25.8747 270.139 26.0659C270.406 26.289 270.406 26.3528 270.112 26.3528C269.897 26.3528 269.495 26.5759 269.227 26.8947C268.638 27.5322 268.584 28.9028 269.147 28.9028C269.442 28.9028 269.522 28.6797 269.388 28.1378C269.281 27.564 269.361 27.3409 269.763 27.2453C270.433 27.0222 271.8 24.8228 272.389 22.974C272.925 21.2528 272.711 20.4559 271.371 19.2447C269.335 17.4278 259.875 13.6347 250.925 11.0847C248.406 10.3515 245.78 9.58654 245.03 9.36342C243.958 9.04467 243.663 8.82154 243.61 8.2478C243.529 7.57841 243.583 7.51467 244.414 7.70592C244.896 7.80154 248.004 8.47092 251.327 9.17216ZM160.459 9.20404C160.754 10.1603 160.486 10.5428 158.931 11.2122C157.726 11.754 152.42 14.7822 134.627 25.014C125.248 30.4009 124.015 30.9109 121.63 30.624C119.915 30.4009 119.888 30.4009 120.773 30.0503C121.255 29.859 121.577 29.604 121.496 29.4765C120.773 28.6478 146.632 13.8578 155.528 10.0009C159.682 8.21592 160.111 8.15217 160.459 9.20404ZM200.761 8.72592C200.895 8.98092 194.625 29.5403 194.303 29.9228C194.009 30.2415 182.164 30.8153 168.793 31.1659C162.094 31.3253 155.448 31.5484 154.054 31.644C150.839 31.8353 150.624 31.6759 151.214 29.6678C151.83 27.5322 151.75 26.3209 150.946 24.9184C150.571 24.249 150.33 23.5478 150.41 23.3247C150.571 22.7828 155.93 19.5634 160.888 17.0134C173.295 10.6703 181.441 8.72592 196.581 8.56654C198.805 8.53467 200.708 8.59842 200.761 8.72592ZM204.701 8.88529C204.701 9.10842 204.165 12.4553 203.521 16.3122C202.878 20.169 202.128 24.6953 201.887 26.3528C201.619 28.0103 201.324 29.5084 201.217 29.6359C201.003 29.9547 196.42 30.0184 196.179 29.7315C196.018 29.5403 199.556 17.6828 202.262 9.36342C202.503 8.63029 202.691 8.50279 203.629 8.50279C204.299 8.50279 204.701 8.66217 204.701 8.88529ZM213.276 8.82154C220.779 9.36342 230.426 10.5109 236.026 11.5628C240.501 12.4234 250.014 14.9097 254.141 16.3122C258.964 17.9697 264.458 20.3284 264.27 20.7109C264.216 20.8384 263.895 20.8703 263.573 20.7428C263.037 20.5515 263.037 20.5834 263.359 21.0615C263.627 21.444 263.948 21.5397 264.404 21.4122L265.047 21.2209L264.19 23.0697C263.064 25.3965 261.322 28.4884 260.947 28.7434C260.786 28.8709 259.661 28.8709 258.428 28.7434C256.552 28.5522 256.177 28.4247 256.07 27.9147C255.883 27.1178 254.918 27.1178 254.73 27.9147C254.57 28.6478 253.98 28.6797 224.584 29.4128C209.953 29.7634 203.227 29.8272 203.039 29.604C202.852 29.3809 203.28 26.034 204.459 18.894L206.174 8.50279H207.514C208.265 8.50279 210.837 8.66217 213.276 8.82154ZM167.962 9.58654C167.908 9.65029 166.89 10.0965 165.711 10.5747C159.548 13.1247 151 17.9378 138.057 26.0978C129.964 31.1659 125.141 33.7159 123.64 33.6522C123.345 33.6522 124.31 33.0784 125.784 32.3772C127.258 31.7078 134.439 27.564 141.728 23.1972C155.877 14.7184 160.325 12.264 164.612 10.5428C166.997 9.58654 168.31 9.20404 167.962 9.58654ZM271.344 12.2003C277.749 14.5272 287.556 18.4478 287.423 18.6072C287.289 18.7347 285.252 18.0653 272.497 13.5709C268.745 12.2322 265.797 11.0528 265.797 10.8615C265.797 10.4153 267.914 10.9253 271.344 12.2003ZM267.78 20.8384C267.888 21.1253 267.673 21.9859 267.352 22.719C266.682 24.2172 263.386 29.1897 263.037 29.2215C262.93 29.2215 263.413 28.1697 264.136 26.8947C265.797 23.9622 266.601 22.1134 266.601 21.1572C266.601 20.7428 266.682 20.3284 266.762 20.2009C267.003 19.914 267.62 20.2965 267.78 20.8384ZM316.444 27.0222C320.49 27.5322 325.072 28.074 326.626 28.1697C329.333 28.329 330.378 28.7434 330.378 29.604C330.378 29.7634 329.092 29.8272 327.511 29.7953C325.26 29.7315 324.643 29.604 324.697 29.2853C324.724 29.0303 324.563 28.9028 324.295 28.9665C324 29.0303 323.786 29.4128 323.732 29.9547L323.652 30.8153L314.621 30.7515L305.591 30.7197L313.496 30.4328C322.258 30.1459 323.009 30.0503 323.25 29.349C323.545 28.4565 323.143 28.2653 321.187 28.2653C319.043 28.2653 313.844 27.564 310.146 26.799C307.601 26.2572 306.154 25.6515 308.003 25.9065C308.592 25.9703 312.397 26.4803 316.444 27.0222ZM148.963 28.584C148.963 29.2215 149.07 29.859 149.231 30.0503C149.66 30.5603 149.124 31.134 147.811 31.6122C147.114 31.8672 146.551 31.9947 146.551 31.899C146.551 31.8034 146.926 31.3572 147.355 30.9109C148.24 30.0503 148.374 29.1897 147.757 28.584C147.409 28.2334 147.409 28.1059 147.945 27.5003C148.668 26.7034 148.963 26.9903 148.963 28.584ZM259.205 31.4209L261.59 31.6122L260.411 32.8234C259.768 33.4928 258.937 34.3534 258.562 34.7678C258.026 35.3097 257.33 35.5647 255.213 35.8515C248.862 36.7759 237.795 40.6965 232.542 43.9159C231.229 44.6809 231.149 45.3184 232.409 45.0634C233.748 44.8084 237.473 42.6728 237.259 42.2903C237.152 42.099 237.446 41.9715 238.009 41.9715C238.491 41.9715 240.823 41.334 243.181 40.569C249.666 38.4334 255.507 37.0309 256.338 37.4134C256.552 37.509 256.285 38.1465 255.534 39.1665C253.31 42.2903 251.515 44.5215 251.193 44.5215C251.032 44.5215 250.684 44.9997 250.47 45.6053C250.014 46.7209 245.539 53.9247 243.904 56.1559C243.395 56.8572 242.029 58.9928 240.876 60.9372C238.733 64.5709 237.848 65.7184 236.803 66.324C236.428 66.5472 236.026 67.2803 235.731 68.2684L235.276 69.8622L235.249 67.8859C235.249 65.9415 234.874 65.049 234.418 65.9097C234.284 66.1647 234.177 66.9934 234.177 67.7903C234.177 69.4478 233.856 69.9897 232.864 70.0534C232.194 70.0853 232.221 70.1172 232.971 70.3403C233.775 70.5953 233.775 70.5953 232.757 70.6272C232.194 70.6272 231.39 70.4359 230.935 70.1809C230.506 69.8941 230.024 69.7665 229.89 69.8622C229.595 70.0853 217.215 70.9459 211.132 71.169C208.854 71.2328 203.87 71.4878 200.091 71.7109C193.982 72.0615 193.151 72.0297 192.99 71.6153C192.374 69.9897 192.749 45.414 193.446 42.5453L193.714 41.3978L195.67 41.2065C199.448 40.824 199.582 40.7922 198.135 40.7284L196.795 40.6328L197.867 40.2184C198.939 39.804 198.912 39.804 196.581 39.7722C194.25 39.7403 194.223 39.7403 194.411 39.0072C194.652 38.0828 196.34 35.1184 197.492 33.6203L198.403 32.4409L213.811 32.1222C222.279 31.9628 231.149 31.899 233.507 32.0265L237.795 32.2497L237.875 33.7797C238.063 37.1584 236.937 37.7959 229.22 38.784C226.888 39.0709 207.97 39.7403 202.208 39.7403C200.467 39.7403 200.145 39.8359 200.145 40.2503C200.145 40.7284 201.512 40.7603 216.84 40.6009C226.031 40.5053 233.936 40.2822 234.445 40.1228L235.383 39.804L234.445 39.7403C233.668 39.6765 233.775 39.6128 235.249 39.2303C237.554 38.6247 238.223 37.9872 238.893 35.7559C239.536 33.6203 240.421 32.6003 242.029 32.0584C244.092 31.389 254.328 30.9747 259.205 31.4209ZM330.351 34.1622C330.217 35.7559 330.003 38.3059 329.896 39.8997L329.681 42.7684L328.663 38.9434C328.073 36.8397 327.403 34.6084 327.162 34.0028C326.09 31.4528 326.09 31.4847 328.422 31.389C329.574 31.3253 330.539 31.2934 330.565 31.2934C330.592 31.3253 330.512 32.6003 330.351 34.1622ZM111.26 32.8553L112.305 33.2697L110.456 33.4609C109.464 33.5884 107.562 33.684 106.222 33.6522H103.81L105.15 33.2059C107.937 32.3134 109.759 32.2178 111.26 32.8553ZM195.456 32.6959L196.527 32.9509L195.134 34.5765C194.357 35.5009 193.714 36.3934 193.714 36.5528C193.714 36.744 193.526 36.9672 193.312 37.0628C193.097 37.1584 192.856 37.509 192.776 37.8278C192.374 39.3259 189.962 39.6765 175.492 40.3778C167.292 40.7603 136.368 42.1628 129.348 42.4815C126.132 42.609 124.578 42.5772 124.578 42.354C124.578 42.1947 124.953 41.079 125.382 39.8997C126.32 37.3815 126.32 37.4772 125.73 37.7322C124.846 38.0828 124.337 38.8478 123.854 40.4415C123.586 41.334 123.131 42.2584 122.836 42.4815C122.247 42.9278 117.584 43.2784 101.801 44.0753C93.9758 44.4578 91.6713 44.6809 91.3497 45.0315C91.0282 45.414 91.7517 45.4778 96.5751 45.4778C101.72 45.4778 115.387 44.8403 120.773 44.3303L122.997 44.139L122.863 45.2228C122.782 45.7965 122.595 47.8365 122.434 49.749C122.273 51.6615 122.005 53.5103 121.871 53.829C121.657 54.339 121.228 54.4028 118.602 54.4347C116.941 54.4665 114.154 54.594 112.385 54.7215L109.17 54.9128L113.591 55.0403C117.771 55.1678 117.879 55.1678 115.467 55.359C113.243 55.5184 113.484 55.5503 117.557 55.614L122.166 55.6778V56.4428C122.166 56.8572 121.979 57.3034 121.737 57.399C121.496 57.4947 119.62 57.5903 117.53 57.5903C111.528 57.6222 106.624 58.0684 106.142 58.6422C105.766 59.0884 105.927 59.3753 107.508 61.3515C108.5 62.5628 109.304 63.774 109.304 64.029C109.304 64.3159 109.866 65.049 110.59 65.6547C112.466 67.2803 112.76 67.3759 111.715 66.069C110.938 65.0809 110.858 64.8578 111.179 64.6028C111.635 64.2522 117.879 64.1884 120.585 64.4753L122.381 64.6984L122.541 66.1647C122.863 68.8103 123.05 73.209 122.863 73.209C122.327 73.209 118.602 70.5953 113.779 66.7703C111.287 64.8259 110.429 64.3478 111.93 65.7503C112.439 66.2284 112.948 66.9297 113.055 67.344C113.189 67.7584 113.43 68.1091 113.591 68.1091C113.752 68.1091 113.806 67.9497 113.725 67.7903C113.645 67.599 113.698 67.4715 113.832 67.4715C113.993 67.4715 114.127 67.7584 114.127 68.1091C114.127 68.8422 115.306 69.8622 115.869 69.5753C116.11 69.4797 116.271 69.5753 116.271 69.7984C116.271 70.3722 117.316 71.2647 120.317 73.209C121.711 74.1334 122.916 74.9622 123.024 75.0897C123.292 75.3765 124.149 80.8272 123.962 81.0503C123.747 81.3053 112.653 81.7834 106.356 81.8153H100.836L100.38 77.5759C99.8176 72.4122 99.2012 69.4478 97.781 65.1128C96.468 61.1284 95.2085 58.7378 92.8504 55.7415C90.5458 52.8728 88.7773 51.279 86.0976 49.6534C79.9343 45.9878 72.1096 45.1909 65.2228 47.5497C60.8013 49.0797 57.0498 51.3428 57.0498 52.4903C57.0498 52.8409 56.9158 53.1915 56.7282 53.319C56.5138 53.4784 56.487 53.3828 56.5942 53.0322C56.6746 52.7134 56.6746 52.4903 56.5406 52.4903C56.1922 52.4903 52.7622 56.9209 52.7622 57.3672C52.7622 57.5903 52.4675 58.2597 52.0923 58.8653C51.7172 59.4709 51.4224 59.8215 51.4224 59.694C51.4224 59.5665 51.6636 59.0247 51.9851 58.4828C52.3067 57.9728 52.4943 57.4947 52.4139 57.399C52.1727 57.0803 50.029 60.9372 48.8499 63.8697C47.3225 67.6309 46.3846 72.7628 46.1702 78.2772C46.063 81.1459 46.0898 82.1659 46.3042 81.8153C46.5186 81.4647 46.599 82.0065 46.599 83.8872C46.599 85.2897 46.6794 86.7878 46.7598 87.234C46.8937 87.8715 46.8401 87.9353 46.6258 87.5528C46.3578 87.1384 46.3042 87.1384 46.063 87.5528C45.8487 87.9672 45.0983 88.0309 41.454 87.9353C34.7547 87.8078 32.879 87.489 31.6731 86.4053L30.6816 85.5128L33.4685 85.1303C36.2822 84.7478 38.2919 84.0465 38.2919 83.4409C38.2919 83.2497 38.9351 82.5803 39.739 81.9747C42.1775 80.0303 43.7317 76.7153 44.0801 72.6034C44.4016 69.1928 43.3298 68.7784 35.8266 69.3203C29.3686 69.7984 29.0738 69.9578 27.466 73.974C26.8229 75.5997 26.0726 77.1297 25.8046 77.3528C25.3758 77.799 25.349 77.7353 25.5098 76.3965C25.7778 73.9422 26.7693 70.659 27.5196 69.6709C28.3503 68.5872 30.1189 67.9497 33.4149 67.599C35.5855 67.344 36.2554 66.8659 34.4868 66.7703C33.3613 66.7384 33.3613 66.7384 34.8083 66.5153L36.2822 66.2922L34.6476 66.2603C32.6914 66.1965 28.6451 66.9934 27.6 67.6309C26.4745 68.3003 25.9386 69.4797 24.8935 73.6872L23.902 77.5122L22.0798 77.6078L20.2576 77.7034L20.4452 76.8109C20.5256 76.3328 20.6864 74.229 20.7936 72.189L20.9544 68.4278L22.321 67.5034C23.0981 66.9934 23.8484 66.3559 24.0628 66.1009C24.4647 65.5272 24.8667 60.8734 24.8935 56.889C24.8935 53.4147 24.4647 52.6497 22.2406 52.1715C21.4367 51.9803 20.74 51.789 20.6596 51.7253C20.3112 51.3109 27.6804 47.5815 31.0568 46.4659C40.4089 43.374 49.2251 41.3978 63.615 39.1347C79.8003 36.5847 100.246 34.449 111.313 34.1622C119.352 33.9709 115.949 34.449 101.533 35.5965C76.7455 37.5409 62.0072 39.4853 47.9388 42.6409C41.0788 44.2028 31.8071 47.454 28.779 49.3984C27.3052 50.3228 27.1712 50.514 27.198 51.4384C27.2516 52.6815 28.5647 55.0722 29.4758 55.5822C30.2261 55.9965 33.8169 55.7734 40.4357 54.849C45.929 54.1159 47.4029 53.6378 49.1983 52.044C51.8512 49.7172 54.5576 46.4978 55.6831 44.3622C56.2994 43.2147 56.9158 42.2903 57.0765 42.2903C57.2373 42.2903 60.5333 41.7803 64.3921 41.1747C76.2363 39.294 83.8198 38.4972 105.552 36.8715C118.817 35.8834 123.452 35.3097 125.864 34.4809C126.668 34.194 127.365 34.0347 127.418 34.0984C127.713 34.449 126.936 35.9153 126.293 36.2978C125.891 36.5209 125.489 36.9034 125.435 37.1265C125.355 37.4772 125.435 37.509 125.891 37.2222C126.186 36.999 126.454 36.9353 126.454 37.0309C126.454 37.1584 126.775 36.9353 127.15 36.5847C127.552 36.2022 128.303 35.7878 128.839 35.5965C129.723 35.3415 145.185 34.5128 165.711 33.684C174.527 33.3334 187.631 32.7597 189.962 32.6003C192.99 32.4409 194.411 32.4409 195.456 32.6959ZM317.971 34.5128C318.319 34.6403 318.507 34.8634 318.4 35.1184C318.319 35.3734 318.614 35.7559 319.123 36.0747C319.606 36.3615 319.927 36.6484 319.874 36.7122C319.847 36.744 319.204 36.6803 318.453 36.5528C316.792 36.2022 315.479 36.1703 315.72 36.4572C315.827 36.5528 315.666 36.8397 315.372 37.0947C314.595 37.7322 314.702 38.274 315.854 39.804L316.845 41.1428L315.961 40.3778C315.479 39.9315 314.595 38.8478 314.005 37.9234C312.906 36.2659 311.861 35.5009 311.674 36.2022C311.62 36.4253 310.736 36.5528 309.208 36.5528C307.574 36.5528 306.797 36.6803 306.716 36.9353C306.636 37.1903 306.555 37.1265 306.555 36.8078C306.529 36.5209 306.743 36.1065 307.011 35.9472C307.44 35.6284 307.44 35.6284 307.011 35.5965C306.18 35.5965 306.261 35.0547 307.145 34.5128C307.895 34.0347 308.619 34.0028 312.692 34.1622C315.264 34.2578 317.649 34.4172 317.971 34.5128ZM306.073 37.6684C307.52 39.6128 311.191 42.6409 313.496 43.7565C314.353 44.1709 316.176 44.649 317.569 44.8722C323.223 45.669 323.304 45.7009 320.329 45.8284L317.649 45.924L319.793 46.1153L321.937 46.3065L319.847 46.3703C318.534 46.4022 317.81 46.5615 317.917 46.7528C318.025 46.944 320.008 47.0715 323.036 47.0715H327.966L328.556 45.6372C328.877 44.8403 329.306 44.2028 329.494 44.2028C329.681 44.2028 330.056 44.7447 330.298 45.3822C330.539 46.0515 331.369 48.219 332.173 50.2272C332.95 52.2034 333.594 53.8928 333.594 53.9565C333.594 54.0203 332.656 54.0522 331.53 54.0203C329.52 53.9884 329.494 53.9884 330.914 53.7972C332.307 53.6059 332.2 53.574 329.172 53.1915C322.634 52.3628 319.954 51.2153 313.442 46.4978C311.7 45.2547 310.28 44.394 310.28 44.6172C310.253 44.8084 309.959 44.5534 309.61 44.0434C309.235 43.5015 308.94 43.2784 308.94 43.5334C308.94 43.7884 308.86 43.9159 308.78 43.8203C308.699 43.6928 308.619 43.5015 308.646 43.3422C308.646 42.8959 307.52 41.6528 307.118 41.6528C306.797 41.6528 306.797 41.7165 307.091 42.1947C307.359 42.5453 307.359 42.6409 307.145 42.4815C306.555 42.0672 306.797 42.7365 307.413 43.2784C307.735 43.5653 309.262 44.8084 310.816 46.0197C318.909 52.4584 322.553 53.9884 330.994 54.594C333.406 54.7534 334.129 54.9128 334.129 55.2634C334.129 56.2834 333.54 62.0847 333.165 64.5709C332.95 66.0372 332.79 68.5553 332.79 70.149C332.79 71.7428 332.682 73.2409 332.548 73.464C332.146 74.2609 331.235 72.3484 330.78 69.7665C330.539 68.4278 330.298 67.1528 330.244 66.9934C330.137 66.6109 330.003 70.4359 330.056 71.7109C330.137 72.9859 330.86 74.5159 331.477 74.7072C331.745 74.8028 331.986 75.0578 331.986 75.2809C331.986 75.8547 329.306 78.6915 328.931 78.5322C328.743 78.4365 328.636 76.4603 328.636 72.2528C328.636 65.2403 328.85 65.814 326.064 65.3997C324.134 65.1128 310.468 65.7503 301.196 66.5153C297.15 66.8659 293.827 67.1209 293.827 67.0891C293.8 67.0253 293.559 66.1965 293.291 65.2403C291.254 58.0365 285.707 51.4703 278.74 48.0278C275.096 46.2109 274.104 46.0515 267.727 46.179C262.233 46.3065 261.778 46.3703 259.634 47.199C255.749 48.729 251.997 51.279 251.166 52.9684C251.032 53.2872 250.362 54.0522 249.719 54.6897C248.701 55.7097 248.594 55.7415 248.915 55.0403L249.264 54.2434L248.513 55.0403C247.281 56.379 245.432 59.439 245.566 59.8853C245.646 60.1084 245.539 60.5865 245.325 60.9372C244.949 61.5428 244.923 61.5428 245.083 60.7778L245.217 59.9809L244.789 60.6822C243.127 63.3278 241.305 69.3522 240.662 74.1653L240.206 77.6715L239.402 77.8309C238.974 77.8947 237.044 78.054 235.115 78.1497L231.631 78.3409L232.837 76.8747C233.507 76.0778 234.311 75.3447 234.633 75.249C235.035 75.1215 235.41 74.4522 235.973 72.7947C236.482 71.2647 236.91 70.404 237.339 70.1809C237.661 70.0215 237.929 69.7028 237.929 69.5434C237.929 68.7465 246.691 54.4665 249.103 51.3109C249.666 50.5778 250.148 49.7809 250.202 49.5578C250.336 48.9203 251.381 47.709 251.783 47.709C251.97 47.709 252.131 47.454 252.131 47.1353C252.131 46.5297 252.747 45.5734 256.392 40.5372C258.857 37.1265 258.964 37.0309 260.277 36.7759C262.367 36.3934 276.811 36.0109 291.522 35.979L304.787 35.9153L306.073 37.6684ZM310.95 37.7959C311.513 37.8278 312.37 38.4334 313.764 39.7722C314.862 40.8559 316.149 41.9397 316.578 42.1628L317.381 42.5772H316.578C315.479 42.609 313.121 41.3978 310.709 39.6128C308.324 37.8597 308.11 37.5409 309.289 37.6684C309.744 37.7322 310.521 37.764 310.95 37.7959ZM191.999 42.4178C191.382 45.3503 191.007 67.1847 191.516 70.0215C191.624 70.6272 191.677 71.424 191.624 71.8065C191.543 72.444 191.436 72.4759 188.167 72.3165C186.264 72.2209 183.665 72.3165 182.218 72.5397C180.798 72.7628 177.689 73.0497 175.304 73.1453C172.919 73.2728 170.883 73.4959 170.802 73.5915C170.025 74.5159 172.383 74.6753 180.985 74.2609C185.032 74.0697 185.487 74.0059 185.621 73.464C185.755 72.7628 186.023 72.7309 186.479 73.3684C186.666 73.6234 186.934 73.8465 187.068 73.8465C187.229 73.8465 187.283 73.6234 187.175 73.3684C187.068 72.9859 187.283 72.8903 188.408 72.8903C189.694 72.8903 189.748 72.9222 189.266 73.3684C188.81 73.7828 188.864 73.8147 190.123 73.8465C191.731 73.8465 191.811 73.9422 192.026 77.0659C192.133 78.4047 192.079 79.2653 191.892 79.3928C191.57 79.6159 174.554 80.3809 161.96 80.7634C154.537 80.9547 152.527 81.369 158.208 81.4965C159.682 81.5284 161.558 81.6878 162.361 81.8153C163.165 81.9747 159.28 82.0065 153.652 81.9109C144.059 81.7515 141.219 81.5922 144.836 81.4328C145.694 81.369 141.728 81.2734 135.967 81.1778L125.516 81.0184L125.167 78.3728C124.953 76.9065 124.846 75.6634 124.899 75.5997C124.953 75.5359 126.186 75.5997 127.66 75.759C129.133 75.9184 132.778 76.0459 135.779 76.0778C140.308 76.0778 141.192 76.014 141.192 75.6315C141.192 74.994 140.066 74.8665 132.885 74.6434C125.945 74.4522 125.114 74.2928 124.658 73.209C124.39 72.4759 123.747 64.9215 123.962 64.6347C124.015 64.539 125.757 64.3478 127.874 64.2203C133.34 63.8378 133.769 63.4872 131.759 60.9053C130.018 58.674 128.705 57.8772 126.266 57.6859C125.114 57.5903 123.962 57.3672 123.72 57.2078C123.024 56.7934 123.131 56.0284 123.908 55.8053C124.846 55.5184 129.08 56.2515 130.366 56.9209C130.982 57.2397 132.59 58.7697 133.984 60.2678C136.904 63.4872 137.44 63.9334 137.44 63.1047C137.44 62.1803 132.671 56.8572 131.009 55.9009C130.205 55.4547 128.571 54.9128 127.392 54.6897C126.212 54.4984 124.899 54.2115 124.444 54.084L123.64 53.8928V51.1834C123.64 49.7172 123.747 47.5497 123.854 46.4022L124.069 44.2984L126.614 44.0753C133.742 43.5334 134.386 43.4378 133.287 43.2147C132.456 43.0553 132.724 43.0234 134.412 42.9597C135.618 42.9597 136.636 43.0234 136.69 43.1509C136.744 43.3103 140.334 43.2465 144.676 43.0553C149.017 42.8322 157.216 42.5134 162.897 42.3222C168.578 42.099 173.589 41.9078 174.018 41.844C174.474 41.8122 178.734 41.7165 183.504 41.7165L192.16 41.6528L191.999 42.4178ZM54.4505 43.884C54.2093 44.9997 53.7001 45.2547 52.789 44.7128C52.3603 44.4259 51.7708 44.2028 51.5028 44.2028C50.7793 44.2028 51.4492 43.629 52.3603 43.4697C54.2897 43.1509 54.5844 43.2147 54.4505 43.884ZM311.754 45.7965C312.397 46.3384 313.014 46.9122 313.121 47.1034C313.201 47.2947 312.612 46.9122 311.781 46.2428C310.95 45.6053 310.28 45.0315 310.28 44.9678C310.28 44.6809 310.655 44.904 311.754 45.7965ZM51.6904 47.2309C52.0655 47.7728 50.5649 49.3028 49.627 49.3028C49.2251 49.3028 48.6891 49.5259 48.4212 49.8447C47.9656 50.3228 47.9388 50.2909 47.9388 48.7609C47.9388 47.1353 47.9388 47.1353 48.9571 46.8484C50.1362 46.4978 51.2884 46.6572 51.6904 47.2309ZM274.667 47.9959C277.106 48.6653 280 50.004 282.358 51.534C283.483 52.2672 283.912 52.3947 284.073 52.1078C284.234 51.789 284.287 51.8209 284.287 52.1715C284.287 52.4584 285.145 53.6697 286.19 54.8809C290.102 59.4709 292.594 64.9215 293.8 71.5834C294.47 75.249 294.872 83.6003 294.47 85.7678C294.283 86.9472 294.068 87.489 293.934 87.234C293.827 87.0109 293.639 84.429 293.532 81.5284C293.264 73.0815 292.701 69.4478 290.853 64.7303C287.905 57.0484 282.17 51.4065 275.203 49.2709C272.309 48.3784 264.35 48.4103 261.43 49.2709C254.998 51.2472 249.317 56.5065 245.753 63.774C244.842 65.6228 244.092 67.4397 244.092 67.7903C244.092 68.1409 244.012 68.4278 243.878 68.4278C243.77 68.4278 243.449 70.1809 243.181 72.3165C242.591 76.8747 242.323 77.9903 241.761 77.9903C241.439 77.9903 241.385 77.7353 241.519 76.7153C241.6 76.014 241.761 74.8665 241.841 74.1653C241.948 73.3047 241.921 72.8903 241.707 72.8903C241.546 72.8903 241.412 72.6034 241.412 72.2209C241.412 71.8384 241.519 71.679 241.707 71.7747C241.895 71.934 241.921 71.6153 241.787 70.8184C241.68 70.0215 241.707 69.6709 241.895 69.7984C242.029 69.9259 242.243 69.5434 242.35 68.8741C242.431 68.2365 242.806 67.1847 243.127 66.5472C243.931 65.049 245.861 60.4909 246.075 59.6303C246.182 59.2478 246.504 58.674 246.825 58.3553C247.388 57.7497 247.388 57.7497 247.066 58.4828C246.557 59.6622 246.879 59.6303 247.629 58.4828C248.272 57.4947 253.873 50.6734 253.578 51.2472C253.337 51.7572 253.9 51.534 256.043 50.3865C258.401 49.1115 261.912 47.8365 264.324 47.3903C266.709 46.9759 272.041 47.2628 274.667 47.9959ZM46.9741 47.9003C47.2421 48.7609 47.1617 50.7372 46.8133 51.279C46.6258 51.5659 45.929 51.9803 45.2591 52.1715C44.5892 52.3628 43.8389 52.6178 43.5709 52.6815C43.1958 52.809 43.303 52.4265 44.0801 50.6734C44.6428 49.494 45.2591 48.2509 45.4735 47.9322C45.9826 47.2628 46.7598 47.2309 46.9741 47.9003ZM77.4154 47.8684C80.4166 48.4103 83.4179 49.5259 85.9904 51.0559C88.0537 52.299 88.3485 52.3947 87.8662 51.6934C87.5714 51.279 87.5982 51.2472 87.9733 51.4065C88.2145 51.5022 88.4021 51.7253 88.4021 51.8528C88.4021 52.2672 89.7687 54.084 90.0635 54.084C90.2243 54.084 90.1707 53.8609 89.9831 53.5422C89.2864 52.554 90.5994 53.6059 91.4837 54.7534C91.9393 55.359 92.0465 55.614 91.7517 55.3272C89.7955 53.4784 90.8406 54.9128 93.1451 57.2397C93.5471 57.654 93.6811 57.8134 93.4399 57.5903C93.1719 57.3672 92.9576 57.3034 92.9576 57.4628C92.9576 57.909 94.1098 59.184 94.5386 59.2159C94.8065 59.2159 94.8333 59.2797 94.6458 59.4072C94.4046 59.5028 94.619 60.2997 95.3425 61.989C95.9052 63.3278 96.7091 65.5272 97.0843 66.834C98.7457 72.2528 100.112 81.114 99.4156 81.624C98.9869 81.9428 98.7189 80.8909 98.049 76.0778C96.7359 66.4834 94.0026 59.9172 89.4204 55.359C86.9283 52.8728 85.0257 51.5978 81.8905 50.3228C79.3447 49.2709 78.8624 49.2072 75.1376 49.0478C68.5724 48.8247 64.6065 49.8128 60.0778 52.8409C57.2373 54.7534 53.5662 59.1203 51.9851 62.4991C49.4394 67.854 48.5283 72.5078 48.2336 81.6878C48.1264 85.0665 47.9656 87.9672 47.8316 88.0947C47.3493 88.6684 47.1349 87.1065 47.1349 82.9309C47.1349 73.3047 48.5283 66.3878 51.6368 60.8415C52.3335 59.5984 54.0217 57.2078 55.3883 55.5503C56.7282 53.8609 57.8537 52.3309 57.8537 52.1078C57.8537 51.789 57.9072 51.789 58.0948 52.1078C58.2556 52.4265 58.6844 52.2672 60.051 51.4065C62.7307 49.6534 66.7234 48.219 70.5822 47.6134C72.4044 47.3265 75.0305 47.4222 77.4154 47.8684ZM40.1409 48.1872C40.8912 48.6334 41.4004 49.8765 41.0252 50.2909C40.918 50.4184 40.1677 50.5778 39.3638 50.6415C37.9972 50.7372 37.89 50.6734 37.8096 50.004C37.7024 49.1115 38.4259 47.709 38.9887 47.709C39.203 47.709 39.739 47.9322 40.1409 48.1872ZM36.1482 51.2153C36.1482 53.5422 35.907 53.7653 33.1201 53.7653C31.1908 53.7653 31.0836 53.7334 30.3869 52.7772C30.0117 52.2034 29.7973 51.6615 29.9045 51.534C30.0117 51.4065 31.03 50.9922 32.1287 50.6097C33.2273 50.2272 34.4332 49.7809 34.8083 49.6215C36.0678 49.1115 36.1482 49.2072 36.1482 51.2153ZM77.6833 52.554C81.5421 53.3828 85.0793 55.869 88.3753 60.0128C92.1269 64.7303 93.9758 69.6709 94.217 75.759C94.6458 85.449 90.3851 94.3741 83.0159 99.3147L81.5153 100.303H73.1815H64.8476L63.5614 99.4741C58.9523 96.4459 54.906 90.804 53.325 85.0984C51.3688 78.1815 51.6636 72.2528 54.2897 66.069C58.6576 55.6459 67.8221 50.3547 77.6833 52.554ZM272.577 53.4784C275.659 54.1478 279.169 56.4109 281.929 59.4709C286.431 64.4753 288.655 70.4359 288.628 77.4803C288.575 87.1703 284.234 95.5534 277.079 99.7609L275.31 100.781L267.914 100.877L260.518 101.004L258.401 99.6016C255.32 97.5934 251.059 92.4934 249.505 88.9234C247.549 84.4609 246.745 79.2653 247.281 74.7072C248.594 63.5509 255.936 54.6259 264.994 53.0959C266.628 52.8409 270.567 53.0322 272.577 53.4784ZM55.174 54.8809C54.6916 55.4865 54.2093 55.9009 54.1289 55.8053C53.9949 55.6459 55.6563 53.7972 55.9511 53.7653C56.0315 53.7653 55.6831 54.2753 55.174 54.8809ZM20.8472 55.2634C20.874 55.1359 21.0883 55.1359 21.3295 55.3272C21.6511 55.5184 21.8655 55.4865 22.1066 55.1359C22.6694 54.1797 22.9909 54.9765 22.5622 56.379C22.0262 58.2278 22.4014 63.9653 23.0445 63.9653C23.1785 63.9653 23.2857 64.1884 23.2857 64.4434C23.2857 64.7622 23.0177 64.9215 22.4818 64.9215C21.5439 64.9215 21.4367 65.3359 22.2942 65.7822L22.8837 66.1009L22.2674 66.324C21.919 66.4834 21.5707 66.4834 21.4903 66.3878C21.4099 66.2922 21.0615 64.9853 20.7132 63.519C20.204 61.1284 20.1772 60.8097 20.5256 60.6503C20.9544 60.459 20.9276 59.3753 20.472 55.5184C20.3648 54.594 20.3916 54.4028 20.5792 54.8809C20.7132 55.2315 20.8472 55.3909 20.8472 55.2634ZM23.8216 58.7378C23.8216 63.2959 23.4733 64.2203 23.1785 60.4909C23.0177 58.5465 23.3929 54.4028 23.7144 54.4028C23.768 54.4028 23.8216 56.3472 23.8216 58.7378ZM90.5458 57.4309C90.7334 57.6859 90.7602 57.909 90.5994 57.909C90.4655 57.909 90.1975 57.6859 90.0099 57.4309C89.8223 57.1759 89.7955 56.9528 89.9563 56.9528C90.0903 56.9528 90.3583 57.1759 90.5458 57.4309ZM119.352 58.419C117.102 58.929 112.064 59.4072 111.876 59.1522C111.474 58.7059 110.751 58.8015 110.376 59.3434C110.134 59.694 109.92 59.7259 109.572 59.5028C109.304 59.3115 108.902 59.2797 108.687 59.3753C108.446 59.4709 107.991 59.3753 107.642 59.1203C107.08 58.7378 107.294 58.674 109.706 58.5147C112.734 58.3234 120.183 58.2597 119.352 58.419ZM121.818 59.2478C121.979 59.4709 122.166 60.1403 122.247 60.714L122.434 61.7659L121.148 60.5865C120.451 59.9172 119.781 59.2478 119.647 59.1203C119.486 58.9928 119.862 58.8653 120.478 58.8653C121.067 58.8653 121.684 59.0565 121.818 59.2478ZM128.49 59.949C129.214 60.4272 130.232 61.224 130.741 61.7659L131.652 62.6903H128.115C124.926 62.6903 124.524 62.6265 124.042 62.0528C123.506 61.4153 123.345 60.3315 123.694 59.3434C123.962 58.4828 126.829 58.8653 128.49 59.949ZM119.352 60.9372L120.424 61.5428L119.352 61.7659C118.763 61.8934 116.887 62.0209 115.172 62.0209C112.278 62.0528 110.697 61.734 109.92 61.0009C109.089 60.2678 110.054 60.0765 114.1 60.204C117.423 60.3315 118.495 60.459 119.352 60.9372ZM120.585 63.2959L121.228 63.9334L117.691 63.9653C114.315 63.9653 112.787 63.6784 112.787 63.0409C112.787 62.8815 114.395 62.7222 116.351 62.7222C119.567 62.6584 119.996 62.7222 120.585 63.2959ZM327.645 67.0891C328.315 67.5353 328.502 68.9378 327.832 68.619C326.171 67.854 323.759 67.6947 319.766 68.0453C317.489 68.2684 315.398 68.5553 315.104 68.7465C314.112 69.384 314.193 72.0934 315.291 74.6115C315.854 75.9184 318.239 78.8828 319.498 79.8072C320.811 80.7953 323.223 81.8153 324.322 81.8153C325.903 81.8472 324.429 82.3572 322.205 82.5803C319.82 82.8034 310.2 84.429 301.571 86.0865C298.49 86.6922 295.89 87.1384 295.837 87.0747C295.783 87.0109 295.756 85.6084 295.783 83.9828C295.837 80.5084 295.381 74.0059 294.899 70.9141C294.55 68.8103 294.577 68.7147 295.113 68.5872C296.051 68.3322 304.68 67.5034 310.28 67.1528C313.147 66.9615 316.229 66.7703 317.113 66.7066C320.597 66.4834 327.028 66.7066 327.645 67.0891ZM236.991 69.0334C236.91 69.2247 236.696 69.384 236.535 69.384C236.374 69.384 236.374 69.1928 236.589 68.9059C236.964 68.364 237.286 68.4916 236.991 69.0334ZM41.8291 71.0415C41.4808 71.2328 41.2664 71.5834 41.3468 71.8065C41.4272 72.0615 41.3736 72.3165 41.2128 72.444C41.052 72.5397 40.9984 72.8265 41.0788 73.0497C41.1592 73.3047 41.0252 73.6553 40.8108 73.8784C40.5965 74.0697 40.4893 74.3247 40.5697 74.4203C40.6501 74.5159 40.5697 74.7709 40.3821 75.0259C40.1409 75.3765 40.1677 75.5997 40.4893 75.9822C40.8108 76.3328 40.8644 76.7153 40.6769 77.4165C40.3821 78.7234 39.1762 80.5403 38.6135 80.5403C38.3723 80.5403 37.8096 80.8272 37.354 81.1778C36.7913 81.624 36.0946 81.8153 35.0763 81.8153C33.013 81.8153 31.9143 81.369 30.762 80.0622C30.2261 79.4247 29.2614 78.7234 28.6183 78.4684C27.5464 78.0859 27.5196 78.0222 28.2431 78.0222C29.3686 77.9584 29.5294 77.7672 30.4672 75.5997C31.5391 73.0497 32.3966 72.0615 34.0312 71.6153C35.2639 71.2647 39.2298 70.7865 41.5076 70.7228C42.3919 70.6909 42.3919 70.7228 41.8291 71.0415ZM330.887 72.2847C331.343 74.1015 331.075 74.1972 330.565 72.444C330.324 71.6153 330.244 70.9778 330.351 70.9778C330.458 70.9778 330.699 71.5515 330.887 72.2847ZM31.03 71.8065C30.8424 72.0934 30.2529 73.3365 29.7169 74.5797C28.2699 77.9584 27.3856 77.7353 28.7522 74.3247C29.3686 72.7309 30.0117 71.8703 30.7888 71.5197C31.4051 71.2647 31.4051 71.2647 31.03 71.8065ZM233.614 72.3165C233.078 73.5915 230.372 77.6715 229.863 77.9903C229.595 78.1815 229.139 78.309 228.845 78.309C228.148 78.309 228.094 78.8509 228.764 79.074C229.005 79.1697 228.737 79.1378 228.148 79.0422C226.326 78.7234 220.645 78.7553 207.782 79.2334C201.003 79.4565 195.107 79.6159 194.678 79.5522C193.767 79.3928 193.58 78.8509 193.285 75.3765L193.097 73.209H196.152C197.841 73.209 202.771 72.9859 207.112 72.7309C221.824 71.8065 223.86 71.7109 228.898 71.6472L233.936 71.6153L233.614 72.3165ZM27.466 80.9228C28.8326 82.4847 29.4222 82.9309 30.3333 83.1222C31.3515 83.3134 31.2712 83.3453 29.6633 83.3772C27.734 83.409 27.064 84.0465 28.9398 84.0465C29.6097 84.0465 29.9581 84.174 29.8509 84.3653C29.6097 84.8115 24.2236 84.3972 23.0981 83.8553C22.5354 83.6003 21.919 82.8353 21.3295 81.7515C19.7753 78.819 19.6949 78.9465 22.9105 78.9465H25.751L27.466 80.9228ZM29.5562 80.3172C29.9581 80.9228 30.2529 81.5284 30.2529 81.6559C30.2529 82.0065 28.9398 80.5403 28.6183 79.8072C28.1627 78.8509 28.8326 79.2015 29.5562 80.3172ZM240.34 84.684V90.1028L173.697 90.0709C137.012 90.039 105.579 89.9434 103.837 89.8159L100.648 89.6247L100.702 86.4372C100.729 84.684 100.782 83.2497 100.809 83.2178C100.836 83.1859 106.168 83.0903 112.68 83.0265C122.809 82.9309 124.551 82.9947 124.98 83.409C125.677 84.1103 130.312 84.174 151.187 83.7597C169.865 83.3772 178.52 83.1222 202.289 82.2934C222.574 81.5603 227.264 81.2734 229.622 80.5403C231.846 79.839 235.088 79.3609 238.277 79.2972L240.34 79.2653V84.684ZM242.377 82.1659C242.618 85.5447 242.297 90.1028 241.787 90.1028C241.493 90.1028 241.412 89.1784 241.412 84.9072C241.412 82.0384 241.493 79.584 241.6 79.4565C241.975 79.0422 242.189 79.8072 242.377 82.1659ZM99.6032 85.5765C99.6836 88.2859 99.3888 89.9115 98.7725 90.039C98.3437 90.1347 98.3169 89.8797 98.4777 87.3297C98.6653 83.7597 98.7993 83.0265 99.2012 83.1859C99.3888 83.2497 99.5496 84.1422 99.6032 85.5765ZM67.5005 101.578C67.5005 101.737 67.3933 101.897 67.2326 101.897C67.0986 101.897 66.9646 101.737 66.9646 101.578C66.9646 101.387 67.0986 101.259 67.2326 101.259C67.3933 101.259 67.5005 101.387 67.5005 101.578ZM101.613 101.482C101.265 101.546 100.675 101.546 100.273 101.482C99.8444 101.418 100.139 101.355 100.863 101.355C101.613 101.355 101.935 101.418 101.613 101.482ZM79.5591 101.897C79.5591 102.056 79.4519 102.215 79.318 102.215C79.1572 102.215 78.9696 102.056 78.8892 101.897C78.8088 101.705 78.916 101.578 79.1304 101.578C79.3715 101.578 79.5591 101.705 79.5591 101.897ZM73.5834 103.363C73.503 103.458 73.2619 103.49 73.0743 103.395C72.8599 103.299 72.9403 103.203 73.2351 103.203C73.5298 103.172 73.6906 103.267 73.5834 103.363Z" fill="#84BF6F"/>
<path d="M25.9654 53.0641C25.9654 53.7972 27.2784 56.1878 28.2967 57.3034L29.047 58.1641L33.8705 57.8772C52.012 56.8891 52.2263 56.8572 52.2263 56.3153C52.2263 55.7416 50.9669 55.6141 47.8316 55.8691L44.5892 56.1559L46.733 56.3472L48.8767 56.5066L46.0095 56.5703C44.3213 56.6022 43.1154 56.5066 43.0618 56.3153C43.0082 56.1241 40.8109 56.1241 36.6305 56.3791C33.1202 56.6022 30.3065 56.8253 30.3601 56.8891C30.4137 56.9209 31.2176 57.1122 32.1555 57.2397L33.8705 57.4947L31.8071 57.5584C29.6634 57.5903 27.9752 57.1122 28.5915 56.6659C28.8327 56.4747 28.6183 55.9009 27.7072 54.4666C26.4745 52.4584 25.9654 52.0441 25.9654 53.0641Z" fill="#84BF6F"/>
<path d="M97.2451 55.3591C97.6202 55.4866 98.6385 55.646 99.5228 55.7097L101.131 55.8054L99.1208 56.0285C97.8078 56.1879 98.6921 56.2197 101.72 56.156C104.266 56.0922 106.49 55.9329 106.678 55.8054C107.374 55.2954 105.82 55.0722 101.265 55.1041C98.5313 55.1041 96.8431 55.1997 97.2451 55.3591Z" fill="#84BF6F"/>
<path d="M37.756 66.1966C37.4612 66.4197 37.4612 66.5153 37.7024 66.5153C37.89 66.5153 37.9704 66.6428 37.89 66.8341C37.7024 67.1847 42.4186 67.2166 45.3931 66.8341C47.2421 66.611 47.2153 66.611 44.1872 66.5153C41.3468 66.4197 41.2396 66.3878 42.8474 66.1966C44.348 66.0053 44.1336 65.9735 41.3736 65.9416C39.605 65.9097 37.9704 66.0372 37.756 66.1966Z" fill="#84BF6F"/>
<path d="M329.252 68.5553C329.118 69.4159 329.065 70.9141 329.065 71.9022L329.092 73.6872L329.36 72.1253C329.494 71.2647 329.574 69.7666 329.52 68.7784L329.44 66.9934L329.252 68.5553Z" fill="#84BF6F"/>
<path d="M152.259 74.2928C144.086 74.6753 141.46 75.0578 146.578 75.1853L149.365 75.2491L146.551 75.4403L143.738 75.6316L147.221 75.6634C153.063 75.7272 160.78 75.2809 160.995 74.8666C161.129 74.6116 162.388 74.4203 164.666 74.3566C167.024 74.2609 167.614 74.2928 166.515 74.4522C165.068 74.6753 165.148 74.7072 167.533 74.6753C169.061 74.6434 170.133 74.5159 170.133 74.3247C170.133 73.8784 161.986 73.8466 152.259 74.2928Z" fill="#84BF6F"/>
<path d="M49.5466 47.9959C49.5466 48.3784 49.7074 48.6653 49.9754 48.6653C50.2166 48.6653 50.3505 48.4422 50.2969 48.1234C50.163 47.3265 49.5466 47.2309 49.5466 47.9959Z" fill="#84BF6F"/>
<path d="M39.203 49.016C38.9351 49.5578 39.5514 50.1635 39.9266 49.7172C40.2481 49.3347 40.0337 48.6653 39.6318 48.6653C39.4978 48.6653 39.3102 48.8247 39.203 49.016Z" fill="#84BF6F"/>
<path d="M69.6443 55.5185C65.6783 56.4747 63.4006 57.9728 60.2654 61.7022C57.8001 64.6347 56.7282 66.6747 55.6563 70.4997C55.1472 72.3485 55.04 73.4003 55.04 76.7153C55.04 80.2535 55.1204 81.0185 55.8171 83.5366C57.6125 90.0391 61.9 95.2347 67.2861 97.466C72.2704 99.506 78.0049 98.7728 82.6944 95.4897C84.6505 94.1191 87.7322 90.4535 88.8576 88.1903C90.519 84.8116 91.1622 82.1022 91.2962 77.6397C91.4033 74.2291 91.3229 73.2728 90.8406 71.1372C88.2949 60.1722 78.9696 53.2872 69.6443 55.5185ZM80.5774 58.7378C81.8637 59.4072 81.8369 59.3435 81.3277 60.2997C80.899 61.0647 80.8454 61.0966 80.0951 60.6185C79.6663 60.3635 79.0232 59.6622 78.6748 59.1203C77.5494 57.3035 77.5494 57.176 78.5944 57.7178C79.1304 58.0047 80.0147 58.451 80.5774 58.7378ZM68.0633 58.451C67.7417 59.1841 66.7234 60.2678 65.9195 60.7778C65.4104 61.0966 65.2496 61.0647 65.062 60.746C64.6333 59.9491 64.928 59.3435 66.1607 58.6103C67.6345 57.7178 68.4384 57.6541 68.0633 58.451ZM77.2278 58.2916C77.067 58.5147 76.8794 58.9291 76.799 59.1841C76.7187 59.471 76.6383 59.2797 76.6383 58.7697C76.6115 58.1641 76.7454 57.9091 77.0402 57.9091C77.3618 57.9091 77.4154 58.0366 77.2278 58.2916ZM75.9951 60.3635C75.9147 60.6822 75.8612 60.491 75.8612 59.981C75.8612 59.4391 75.9147 59.216 75.9951 59.4072C76.0487 59.6303 76.0487 60.0766 75.9951 60.3635ZM83.3107 61.1285C83.3107 61.3197 83.2035 61.3516 83.0427 61.256C82.9087 61.1603 82.7747 60.9053 82.7747 60.746C82.7747 60.5547 82.9087 60.5228 83.0427 60.6185C83.2035 60.7141 83.3107 60.9691 83.3107 61.1285ZM70.6358 61.7978C70.5554 62.021 70.5018 61.8616 70.5018 61.4153C70.5018 60.9691 70.5554 60.8097 70.6358 61.001C70.6894 61.2241 70.6894 61.6066 70.6358 61.7978ZM79.1572 61.766C79.7467 62.1485 80.2826 62.4991 80.3362 62.5628C80.4434 62.6903 78.2997 66.2285 77.2814 67.631L76.5847 68.5872L76.7187 67.0891C76.933 64.9535 77.6833 61.0966 77.8977 61.0966C78.0049 61.0966 78.5676 61.4153 79.1572 61.766ZM60.8013 62.0847C60.6137 62.4353 60.4261 62.6585 60.3458 62.5628C60.2654 62.4672 60.3458 62.1803 60.5333 61.8935C61.0157 61.2241 61.1497 61.2878 60.8013 62.0847ZM65.3568 63.3278C65.4908 63.3278 65.6247 63.4872 65.6247 63.6785C65.6247 63.8697 65.2764 63.7103 64.8208 63.3278C64.3385 62.9135 64.0169 62.3716 64.0169 61.9572C64.0169 61.3516 64.0973 61.3835 64.5529 62.276C64.8476 62.8497 65.196 63.3278 65.3568 63.3278ZM69.0815 63.0728C69.5371 65.6866 69.9122 68.5235 69.8051 68.651C69.7247 68.7785 67.4737 65.2403 66.5894 63.5828C66.1071 62.7222 66.1071 62.7222 67.0182 62.0528C68.4384 61.0328 68.76 61.1922 69.0815 63.0728ZM62.4895 63.7422C61.9536 64.4435 59.7562 65.7185 59.5419 65.4316C59.3543 65.2085 60.4261 63.4872 61.2569 62.6903C61.9 62.0847 61.9804 62.0847 62.4627 62.5628C62.9183 63.0728 62.9183 63.1366 62.4895 63.7422ZM82.1048 62.6903C81.8369 63.041 81.5689 63.2641 81.4885 63.1685C81.3009 62.9772 81.9708 62.0528 82.3192 62.0528C82.4532 62.0528 82.3728 62.3397 82.1048 62.6903ZM85.6152 63.2003C86.6871 64.5072 87.1962 65.5591 86.8211 65.5591C86.1779 65.5591 84.9721 64.7941 84.195 63.9016C83.3911 62.9772 83.3643 62.8816 83.793 62.4991C84.4629 61.8616 84.6237 61.9253 85.6152 63.2003ZM75.7272 63.3916C75.6468 63.6466 75.5664 63.551 75.5664 63.2003C75.5396 62.8497 75.62 62.6585 75.7004 62.786C75.7808 62.8816 75.8076 63.1685 75.7272 63.3916ZM66.1071 67.7266C67.045 69.3522 67.7685 70.7547 67.7149 70.8503C67.6345 70.9141 66.4019 70.1172 64.9548 69.0653C63.5078 68.0453 62.1947 67.121 62.034 67.0572C61.6052 66.866 63.5346 64.571 64.0169 64.6666C64.2313 64.7303 65.196 66.101 66.1071 67.7266ZM83.4179 65.591C83.793 66.1328 84.1146 66.7385 84.1146 66.9297C84.1146 67.1528 83.2839 67.8541 82.2924 68.4916C81.3009 69.1291 79.9611 70.0535 79.3179 70.5316C78.0585 71.456 78.0585 71.3603 79.5055 68.906C80.9794 66.4516 82.2388 64.6028 82.5068 64.6028C82.614 64.6028 83.0427 65.0491 83.4179 65.591ZM87.3302 66.6747C87.3302 66.9297 87.223 67.1528 87.089 67.1528C86.9551 67.1528 86.7139 66.9297 86.5263 66.6747C86.2583 66.2603 86.2851 66.1966 86.7675 66.1966C87.089 66.1966 87.3302 66.3878 87.3302 66.6747ZM72.5919 67.4716C72.5919 67.631 72.4847 67.7903 72.324 67.7903C72.19 67.7903 72.056 67.631 72.056 67.4716C72.056 67.2803 72.19 67.1528 72.324 67.1528C72.4847 67.1528 72.5919 67.2803 72.5919 67.4716ZM85.9904 68.7466C85.3472 69.2247 84.9989 69.0972 85.5616 68.5872C85.8564 68.3322 86.1511 68.2047 86.2315 68.3003C86.3119 68.396 86.2047 68.5872 85.9904 68.7466ZM78.2461 68.9697C78.5944 69.4797 78.5676 69.5116 78.1657 69.0972C77.7101 68.6828 77.5762 68.4278 77.7905 68.4278C77.8441 68.4278 78.0585 68.6828 78.2461 68.9697ZM62.1411 69.2247C62.5699 69.5116 62.6503 69.671 62.3823 69.7028C62.1679 69.7028 61.7392 69.4797 61.4444 69.2247C60.8013 68.651 61.2569 68.6191 62.1411 69.2247ZM84.3826 69.3841C84.3826 69.5435 84.2486 69.7028 84.0878 69.7028C83.9538 69.7028 83.9002 69.5435 83.9806 69.3841C84.061 69.1928 84.195 69.0653 84.2754 69.0653C84.329 69.0653 84.3826 69.1928 84.3826 69.3841ZM70.4482 70.7866C70.4482 70.8503 70.207 70.9778 69.9122 71.0735C69.6175 71.1691 69.4299 71.1053 69.5371 70.946C69.6711 70.6591 70.4482 70.5316 70.4482 70.7866ZM72.056 71.966C72.056 72.1572 71.9488 72.1891 71.788 72.0935C71.654 71.9978 71.5201 71.7428 71.5201 71.5835C71.5201 71.3922 71.654 71.3603 71.788 71.456C71.9488 71.5516 72.056 71.8066 72.056 71.966ZM82.2656 72.476C82.614 72.986 82.5872 73.0178 82.1852 72.6035C81.7297 72.1891 81.5957 71.9341 81.8101 71.9341C81.8637 71.9341 82.078 72.1891 82.2656 72.476ZM69.9122 74.1972C69.9122 74.2928 69.6175 74.3247 69.2691 74.261C68.8404 74.1653 68.6528 73.9422 68.76 73.6553C68.8672 73.3366 69.0012 73.3047 69.4031 73.6235C69.6711 73.8147 69.9122 74.1016 69.9122 74.1972ZM60.7209 75.2172C60.8281 75.4085 60.6137 75.4403 60.1046 75.3128C59.0059 74.9941 58.7379 74.5478 59.7294 74.7391C60.185 74.8028 60.6137 75.026 60.7209 75.2172ZM81.9976 75.026C82.346 75.536 82.3192 75.5678 81.9172 75.1535C81.4617 74.7391 81.3277 74.4841 81.5421 74.4841C81.5957 74.4841 81.8101 74.7391 81.9976 75.026ZM64.6869 75.1216C64.6065 75.281 64.3921 75.4403 64.2581 75.4403C64.0973 75.4403 64.0705 75.281 64.1509 75.1216C64.2313 74.9303 64.4457 74.8028 64.5797 74.8028C64.7404 74.8028 64.7672 74.9303 64.6869 75.1216ZM77.9781 75.3447C78.3265 75.8547 78.2997 75.8866 77.8977 75.4722C77.4422 75.0578 77.3082 74.8028 77.5226 74.8028C77.5762 74.8028 77.7905 75.0578 77.9781 75.3447ZM87.0622 75.1216C86.8479 75.281 86.4191 75.4403 86.1244 75.4403C85.6688 75.4403 85.6688 75.3766 85.9904 75.1216C86.2047 74.9622 86.6335 74.8028 86.9283 74.8028C87.3838 74.8028 87.3838 74.8666 87.0622 75.1216ZM62.5967 75.6316C62.5163 75.7272 62.2751 75.7591 62.0876 75.6635C61.8732 75.5678 61.9536 75.4722 62.2483 75.4722C62.5431 75.4403 62.7039 75.536 62.5967 75.6316ZM57.6125 76.6197C57.9608 77.1297 57.934 77.1616 57.5321 76.7472C57.2641 76.5241 57.0497 76.2691 57.0497 76.2053C57.0497 75.9503 57.2641 76.1097 57.6125 76.6197ZM57.9608 79.4247C58.1752 80.7316 57.8804 81.3691 57.2105 81.0822C56.621 80.7953 56.2458 79.4885 56.2458 77.7353L56.2726 76.2372L57.0229 77.2253C57.4517 77.7672 57.8536 78.7553 57.9608 79.4247ZM90.0099 78.2453C90.0099 79.2653 89.8491 80.3491 89.6615 80.6678C89.2328 81.3691 88.4021 81.0185 88.4021 80.1578C88.4021 79.3291 89.474 76.3966 89.7687 76.3966C89.9027 76.3966 90.0099 77.2253 90.0099 78.2453ZM78.4069 76.9066C78.3265 77.0022 78.0853 77.0341 77.8977 76.9385C77.6833 76.8428 77.7637 76.7472 78.0585 76.7472C78.3533 76.7153 78.514 76.811 78.4069 76.9066ZM81.8904 76.9066C81.8101 77.0022 81.5689 77.0341 81.3813 76.9385C81.1669 76.8428 81.2473 76.7472 81.5421 76.7472C81.8369 76.7153 81.9976 76.811 81.8904 76.9066ZM87.1158 78.5322C87.0622 79.3928 86.9015 80.1897 86.7943 80.3491C86.6603 80.4766 85.2133 80.0622 83.5251 79.3928C81.8637 78.7553 80.631 78.1497 80.7918 78.086C81.0597 77.9903 85.9636 77.1616 86.7943 77.066C87.1158 77.0341 87.1694 77.3528 87.1158 78.5322ZM64.6869 77.9266L65.4908 78.1816L64.6869 78.5322C64.2313 78.7235 62.8915 79.3291 61.7124 79.871L59.5151 80.8272L59.3543 80.126C59.2739 79.7435 59.1935 78.9466 59.1935 78.341V77.2572L61.5516 77.4803C62.8379 77.576 64.2313 77.7991 64.6869 77.9266ZM63.2398 80.7635C63.5882 81.2735 63.5614 81.3053 63.1594 80.891C62.8915 80.6678 62.6771 80.4128 62.6771 80.3491C62.6771 80.0941 62.8915 80.2535 63.2398 80.7635ZM64.2849 83.7278C63.0522 85.1303 61.9268 86.2778 61.8196 86.2778C61.5516 86.2778 60.2654 84.0147 60.2654 83.5366C60.2654 83.2178 65.2228 81.2735 66.1607 81.2416C66.3751 81.2097 65.5444 82.3572 64.2849 83.7278ZM76.6115 81.8153C76.3167 82.4847 75.5396 82.7078 75.5396 82.1341C75.5396 81.9428 75.7272 81.8153 75.9415 81.8153C76.1559 81.8153 76.3435 81.656 76.3435 81.4966C76.3435 81.3053 76.4775 81.1778 76.6115 81.1778C76.799 81.1778 76.799 81.3691 76.6115 81.8153ZM83.2035 82.1978C84.7309 82.7397 85.9904 83.3135 85.9904 83.4728C85.9904 84.0147 84.8917 86.2778 84.6237 86.2778C84.3022 86.2778 79.8807 81.2097 80.1754 81.1778C80.3094 81.1778 81.6761 81.6241 83.2035 82.1978ZM79.3179 82.0385C79.6663 82.5485 79.6395 82.5803 79.2376 82.166C78.9696 81.9428 78.7552 81.6878 78.7552 81.6241C78.7552 81.3691 78.9696 81.5285 79.3179 82.0385ZM59.0863 82.5166C59.2203 82.7716 59.0327 82.8035 58.4432 82.676C57.8804 82.5485 57.5857 82.5803 57.5857 82.8353C57.5857 83.0266 57.5053 83.1222 57.4249 82.9947C57.3445 82.8991 57.3445 82.676 57.4517 82.4847C57.6661 82.0066 58.8451 82.0385 59.0863 82.5166ZM88.1341 83.1541C88.1341 83.3453 87.9465 83.3135 87.7322 83.0903C87.5178 82.8672 87.3302 82.5485 87.3302 82.3891C87.3302 82.1978 87.5178 82.2297 87.7322 82.4528C87.9465 82.676 88.1341 82.9947 88.1341 83.1541ZM79.5859 84.5885C79.9343 85.0985 79.9075 85.1303 79.5055 84.716C79.05 84.3016 78.916 84.0466 79.1304 84.0466C79.184 84.0466 79.3983 84.3016 79.5859 84.5885ZM78.3533 84.971C78.2729 85.1622 77.9781 85.3216 77.7369 85.3216C77.3886 85.3216 77.3886 85.2578 77.8441 84.8753C78.4069 84.3972 78.648 84.4291 78.3533 84.971ZM88.6701 84.716C88.6701 85.1622 87.1158 88.4135 86.7943 88.6685C86.3655 88.9872 86.2583 87.2341 86.6335 86.1185C87.089 84.8435 88.6701 83.7597 88.6701 84.716ZM59.5686 85.7678C60.051 86.9791 60.1314 88.5091 59.7294 88.5091C59.4079 88.5091 57.8536 85.7041 57.8536 85.0985C57.8536 84.8753 58.1484 84.6841 58.4968 84.6841C58.9523 84.6841 59.2471 84.971 59.5686 85.7678ZM82.2656 85.226C82.614 85.736 82.5872 85.7678 82.1852 85.3535C81.7297 84.9391 81.5957 84.6841 81.8101 84.6841C81.8637 84.6841 82.078 84.9391 82.2656 85.226ZM82.1048 86.2141C82.0244 86.3097 81.8101 86.2141 81.6225 85.991C81.3813 85.6722 81.4081 85.6403 81.7833 85.8316C82.0512 85.9272 82.1852 86.1185 82.1048 86.2141ZM64.8208 86.0547C64.8208 86.1185 64.3117 86.7241 63.6954 87.3935L62.5431 88.6685L63.615 87.2978C64.5797 86.0547 64.8208 85.7997 64.8208 86.0547ZM77.1474 92.6847C77.1474 93.0353 76.8258 93.2585 76.1559 93.4178C74.2265 93.7685 74.3337 94.0235 74.4409 89.7203L74.5213 85.7997L75.8344 88.9872C76.5579 90.7403 77.1474 92.3978 77.1474 92.6847ZM79.8271 86.0547C79.8271 86.1185 79.5591 86.4372 79.2644 86.7878C78.6748 87.3935 78.6748 87.3935 79.05 86.6603C79.3715 86.0547 79.8271 85.7041 79.8271 86.0547ZM72.0292 91.5053L72.056 93.7047L70.9305 93.4816C70.341 93.3541 69.7247 93.1947 69.5907 93.0991C69.1619 92.7803 69.4031 91.6647 70.5286 88.9553L71.654 86.2141L71.8416 87.776C71.922 88.6047 72.0292 90.2941 72.0292 91.5053ZM65.6247 86.9153C65.6247 87.0747 65.4372 87.2341 65.2228 87.2341C65.0084 87.2341 64.8208 87.0747 64.8208 86.9153C64.8208 86.7241 65.0084 86.5966 65.2228 86.5966C65.4372 86.5966 65.6247 86.7241 65.6247 86.9153ZM72.7795 87.776C72.6991 88.0947 72.6455 87.9035 72.6455 87.3935C72.6455 86.8516 72.6991 86.6285 72.7795 86.8197C72.8331 87.0428 72.8331 87.4891 72.7795 87.776ZM84.195 89.2103L84.6773 90.2622L83.8734 89.1466C83.4179 88.541 83.0427 87.9353 83.0427 87.776C83.0427 87.266 83.6858 88.0628 84.195 89.2103ZM61.0425 89.561C61.0693 89.7203 60.9621 89.7203 60.8013 89.6247C60.6673 89.5291 60.5333 89.1147 60.5601 88.7322C60.5601 88.0628 60.5869 88.0628 60.8013 88.6685C60.9353 89.0191 61.0425 89.4335 61.0425 89.561ZM65.8927 89.306C66.0803 89.5928 66.1071 89.7841 65.9463 89.7841C65.8123 89.7841 65.6247 89.561 65.5176 89.306C65.4372 89.051 65.4104 88.8278 65.464 88.8278C65.5176 88.8278 65.7051 89.051 65.8927 89.306ZM73.2351 90.6128C73.4762 91.3778 73.4226 94.1828 73.1547 94.3741C73.0207 94.5016 72.8599 93.5772 72.8063 92.3341C72.7259 90.1985 72.8867 89.5291 73.2351 90.6128ZM78.5944 90.6128C78.8356 91.3778 78.648 91.4416 78.2729 90.7403C78.0853 90.3897 78.0585 90.1028 78.1925 90.1028C78.3265 90.1028 78.514 90.326 78.5944 90.6128ZM67.2326 92.3022C67.0986 92.6528 66.8306 93.0353 66.643 93.1628C66.4554 93.3222 66.4286 93.2266 66.5626 92.9397C67.1254 91.7603 67.7417 91.1866 67.2326 92.3022ZM80.631 94.2785C80.631 94.4697 80.5238 94.5016 80.363 94.406C80.229 94.3103 80.0951 94.0553 80.0951 93.896C80.0951 93.7047 80.229 93.6728 80.363 93.7685C80.5238 93.8641 80.631 94.1191 80.631 94.2785ZM71.1717 94.4378C71.0913 94.5335 70.8501 94.5653 70.6626 94.4697C70.4482 94.3741 70.5286 94.2785 70.8233 94.2785C71.1181 94.2466 71.2789 94.3422 71.1717 94.4378ZM71.6808 95.9041C71.5737 97.0516 71.6004 97.0516 69.2959 96.446C67.2594 95.8722 68.0901 95.0116 70.7697 94.916C71.7612 94.8841 71.788 94.916 71.6808 95.9041ZM78.4604 95.4897C78.9428 95.8403 78.648 95.9997 76.8258 96.4778C75.1376 96.8603 74.7357 96.7647 74.7357 95.8085C74.7357 95.2666 74.9233 95.2028 76.4239 95.2028C77.335 95.2028 78.2461 95.3303 78.4604 95.4897Z" fill="#84BF6F"/>
<path d="M265.663 55.6778C258.053 56.7297 252.104 63.0409 250.068 72.2528C249.478 74.9622 249.478 79.7116 250.068 82.4528C251.059 86.8834 253.471 91.3778 256.365 94.0872C258.643 96.2547 262.153 98.2628 264.484 98.7091C269.79 99.7609 275.766 97.8803 279.705 93.8959C284.019 89.4972 286.458 82.6441 286.056 75.9184C285.868 72.3166 285.386 70.1809 284.1 67.1528C282.76 63.9653 279.33 59.8216 276.65 58.1641C273.354 56.1241 269.201 55.1678 265.663 55.6778ZM262.662 59.1203C262.233 59.7578 261.483 60.5547 261.001 60.9053C260.17 61.4791 260.143 61.4791 259.768 60.9053C259.554 60.5547 259.393 60.1403 259.366 59.9809C259.366 59.6622 263.145 57.5903 263.359 57.8134C263.439 57.8772 263.118 58.4509 262.662 59.1203ZM276.489 59.7259C276.677 59.8853 275.685 61.4153 275.391 61.4153C275.016 61.4153 272.497 58.3872 272.497 57.9409C272.497 57.7178 275.793 59.1841 276.489 59.7259ZM264.19 58.5466C264.19 58.7059 264.082 58.8653 263.922 58.8653C263.788 58.8653 263.654 58.7059 263.654 58.5466C263.654 58.3553 263.788 58.2278 263.922 58.2278C264.082 58.2278 264.19 58.3553 264.19 58.5466ZM272.229 58.7059C272.229 58.9609 272.121 59.1841 271.961 59.1841C271.827 59.1841 271.693 58.9609 271.693 58.7059C271.693 58.4509 271.827 58.2278 271.961 58.2278C272.121 58.2278 272.229 58.4509 272.229 58.7059ZM270.808 60.8416C270.728 61.0966 270.648 61.0009 270.648 60.6503C270.621 60.2997 270.701 60.1084 270.782 60.2359C270.862 60.3316 270.889 60.6184 270.808 60.8416ZM265.476 62.5309C265.476 63.4553 265.476 63.4553 265.261 62.6903C265.154 62.2441 265.047 61.5428 265.047 61.0966C265.02 60.3634 265.047 60.3634 265.261 60.9372C265.395 61.2878 265.476 61.9891 265.476 62.5309ZM277.776 61.2878C277.695 61.3834 277.454 61.4153 277.266 61.3197C277.052 61.2241 277.132 61.1284 277.427 61.1284C277.722 61.0966 277.883 61.1922 277.776 61.2878ZM264.082 65.2403C264.806 69.1609 264.806 69.1609 264.431 68.8741C264.029 68.5872 260.974 63.6466 260.974 63.2959C260.974 62.8816 262.635 61.7022 263.091 61.7978C263.359 61.8616 263.68 63.0091 264.082 65.2403ZM274.051 62.3716C274.828 62.9453 274.882 63.0728 274.614 63.7422C274.185 64.7303 271.371 69.0972 271.264 68.9697C271.184 68.9059 271.398 67.2484 271.72 65.3041C272.336 61.3516 272.47 61.2241 274.051 62.3716ZM257.544 63.3597C258.053 63.7422 255.454 65.8778 254.462 65.8778C253.846 65.8778 254.141 65.2403 255.615 63.3278C256.66 61.9891 256.74 61.9572 257.035 62.5309C257.169 62.8816 257.41 63.2641 257.544 63.3597ZM281.608 65.6228C281.608 66.3878 279.705 65.4634 278.714 64.1884C278.097 63.4234 278.097 63.3916 278.58 62.6903L279.062 62.0209L280.348 63.6784C281.045 64.6028 281.608 65.4634 281.608 65.6228ZM270.54 63.0728C270.46 63.3278 270.38 63.2322 270.38 62.8816C270.353 62.5309 270.433 62.3397 270.514 62.4672C270.594 62.5628 270.621 62.8497 270.54 63.0728ZM260.036 63.6466C260.116 63.8059 260.009 63.9653 259.795 63.9653C259.581 63.9653 259.313 63.8059 259.232 63.6466C259.152 63.4553 259.259 63.3278 259.473 63.3278C259.688 63.3278 259.956 63.4553 260.036 63.6466ZM276.65 63.6466C276.57 63.8059 276.302 63.9653 276.087 63.9653C275.873 63.9653 275.766 63.8059 275.846 63.6466C275.927 63.4553 276.195 63.3278 276.409 63.3278C276.623 63.3278 276.731 63.4553 276.65 63.6466ZM260.786 68.0772C261.778 69.8303 262.582 71.3284 262.582 71.4241C262.582 71.5197 261.269 70.6272 259.634 69.4797C258.026 68.3322 256.686 67.2803 256.686 67.1209C256.686 66.8659 258.589 64.9216 258.83 64.9216C258.911 64.9216 259.768 66.3559 260.786 68.0772ZM278.097 66.0053C278.58 66.6109 278.901 67.2484 278.821 67.4078C278.74 67.5991 277.91 68.2366 276.972 68.8422C276.061 69.4797 274.855 70.3403 274.319 70.7866C273.756 71.2328 273.301 71.5197 273.301 71.4241C273.301 70.8822 276.731 64.9216 277.025 64.9216C277.132 64.9216 277.615 65.3997 278.097 66.0053ZM281.742 66.8659C282.036 67.4078 281.715 67.5353 281.34 66.9934C281.125 66.7066 281.125 66.5153 281.286 66.5153C281.447 66.5153 281.661 66.6747 281.742 66.8659ZM256.419 69.3841C256.767 69.6391 256.767 69.7028 256.365 69.7028C256.124 69.7028 255.829 69.5434 255.749 69.3841C255.534 68.9697 255.883 68.9697 256.419 69.3841ZM280 69.2247C280 69.2884 279.651 69.5753 279.196 69.8622C278.767 70.1491 278.392 70.2447 278.392 70.0853C278.392 69.9259 278.66 69.6391 279.008 69.4478C279.678 69.0653 280 69.0016 280 69.2247ZM254.543 70.0216C254.543 70.1809 254.355 70.3403 254.114 70.3403C253.9 70.3403 253.792 70.1809 253.873 70.0216C253.953 69.8303 254.141 69.7028 254.302 69.7028C254.436 69.7028 254.543 69.8303 254.543 70.0216ZM269.844 70.7547C269.576 71.0416 269.549 71.0097 269.71 70.5634C269.79 70.2447 269.951 70.0853 270.031 70.1809C270.112 70.2766 270.031 70.5316 269.844 70.7547ZM267.861 71.3603C267.78 71.5834 267.727 71.4241 267.727 70.9778C267.727 70.5316 267.78 70.3722 267.861 70.5634C267.914 70.7866 267.914 71.1691 267.861 71.3603ZM272.095 71.0097C272.389 71.5516 272.068 71.6791 271.693 71.1372C271.478 70.8503 271.478 70.6591 271.639 70.6591C271.8 70.6591 272.014 70.8184 272.095 71.0097ZM260.438 73.2091C260.438 73.3684 260.331 73.5278 260.17 73.5278C260.036 73.5278 259.902 73.3684 259.902 73.2091C259.902 73.0178 260.036 72.8903 260.17 72.8903C260.331 72.8903 260.438 73.0178 260.438 73.2091ZM255.213 75.4403L255.749 75.7272H255.213C254.918 75.7272 254.436 75.5997 254.141 75.4403L253.605 75.1534H254.141C254.436 75.1534 254.918 75.2809 255.213 75.4403ZM281.742 75.4403C281.447 75.5997 280.964 75.7272 280.67 75.7272H280.134L280.67 75.4403C280.964 75.2809 281.447 75.1534 281.742 75.1534H282.277L281.742 75.4403ZM254.141 76.7153C254.06 76.8747 253.846 77.0341 253.712 77.0341C253.551 77.0341 253.524 76.8747 253.605 76.7153C253.685 76.5241 253.9 76.3966 254.034 76.3966C254.194 76.3966 254.221 76.5241 254.141 76.7153ZM252.667 79.8709C252.962 81.1141 252.828 81.4966 252.158 81.4966C251.327 81.4966 251.059 80.7953 251.059 78.6597V76.5878L251.729 77.6716C252.104 78.2772 252.506 79.2653 252.667 79.8709ZM259.822 77.2253C259.741 77.3209 259.5 77.3528 259.313 77.2572C259.098 77.1616 259.179 77.0659 259.473 77.0659C259.768 77.0341 259.929 77.1297 259.822 77.2253ZM284.823 78.4366C284.823 80.5084 284.448 81.4966 283.617 81.4966C283.242 81.4966 282.947 81.3053 282.947 81.0822C282.947 79.7753 284.019 77.0341 284.555 77.0341C284.716 77.0341 284.823 77.6716 284.823 78.4366ZM281.876 78.9784C281.768 79.6797 281.554 80.4128 281.42 80.5722C281.286 80.7316 280.429 80.5722 279.33 80.1897C278.285 79.8391 276.999 79.3928 276.463 79.2016C275.9 79.0103 275.444 78.7553 275.444 78.6597C275.444 78.4366 281.581 77.4166 281.902 77.5759C282.01 77.6078 281.983 78.2453 281.876 78.9784ZM257.678 78.0222C258.83 78.2134 259.875 78.5003 259.982 78.6278C260.25 78.9147 254.623 80.9547 254.275 80.6997C253.953 80.4766 253.632 78.4366 253.873 78.0222C254.087 77.5759 255.079 77.5759 257.678 78.0222ZM253.39 79.9666C253.31 80.2216 253.23 80.1259 253.23 79.7753C253.203 79.4247 253.283 79.2334 253.364 79.3609C253.444 79.4566 253.471 79.7434 253.39 79.9666ZM282.599 79.9666C282.519 80.2216 282.438 80.1259 282.438 79.7753C282.411 79.4247 282.492 79.2334 282.572 79.3609C282.653 79.4566 282.679 79.7434 282.599 79.9666ZM259.125 80.7634C259.473 81.2734 259.447 81.3053 259.045 80.8909C258.777 80.6678 258.562 80.4128 258.562 80.3491C258.562 80.0941 258.777 80.2534 259.125 80.7634ZM263.841 81.8791C263.761 82.1341 263.68 82.0384 263.68 81.6878C263.654 81.3372 263.734 81.1459 263.814 81.2734C263.895 81.3691 263.922 81.6559 263.841 81.8791ZM272.229 81.6878C272.229 81.9428 272.095 82.0703 271.961 81.9747C271.8 81.8472 271.746 81.6241 271.827 81.4647C272.068 81.0184 272.229 81.1141 272.229 81.6878ZM259.125 84.0784C257.839 85.5447 256.713 86.5966 256.445 86.5328C256.231 86.4691 255.749 85.8316 255.4 85.0984L254.784 83.7597L257.544 82.7716C259.071 82.1978 260.438 81.7197 260.572 81.6559C261.43 81.3053 261.162 81.7834 259.125 84.0784ZM265.422 82.3572C265.235 82.5803 264.726 82.1341 264.726 81.7516C264.726 81.5603 264.886 81.5603 265.127 81.8153C265.369 82.0384 265.476 82.2934 265.422 82.3572ZM277.454 82.4528C279.759 83.2816 280.804 83.7597 280.804 83.9828C280.804 84.3016 279.437 86.9153 279.276 86.9153C279.062 86.9153 276.65 84.2059 275.444 82.6441C274.721 81.6878 274.64 81.4647 275.042 81.5922C275.337 81.7197 276.436 82.1022 277.454 82.4528ZM280.268 81.9747C280.268 82.2297 280.161 82.4528 280 82.4528C279.866 82.4528 279.812 82.2297 279.893 81.9747C280 81.7197 280.107 81.4966 280.161 81.4966C280.214 81.4966 280.268 81.7197 280.268 81.9747ZM253.819 82.9947C253.632 83.0584 253.256 83.0584 253.015 82.9947C252.747 82.8991 252.908 82.8353 253.337 82.8353C253.792 82.8353 253.98 82.8991 253.819 82.9947ZM254.516 86.8197C254.757 87.8716 254.65 89.1466 254.275 89.1466C254.087 89.1466 252.399 85.6084 252.399 85.2259C252.399 85.1303 252.667 85.0028 253.015 84.9391C253.712 84.7797 254.194 85.3853 254.516 86.8197ZM262.582 84.9709C262.582 85.3534 262.046 85.7678 261.858 85.5447C261.671 85.3216 262.019 84.6841 262.341 84.6841C262.475 84.6841 262.582 84.8116 262.582 84.9709ZM283.483 85.2259C283.483 85.7997 281.527 89.1147 281.286 88.9553C280.911 88.6684 281.179 86.4372 281.688 85.5128C282.01 84.9391 282.277 84.8116 282.787 84.9072C283.162 85.0028 283.483 85.1622 283.483 85.2259ZM267.861 86.3416C267.78 86.5966 267.7 86.5009 267.7 86.1503C267.673 85.7997 267.754 85.6084 267.834 85.7359C267.914 85.8316 267.941 86.1184 267.861 86.3416ZM274.104 86.2459C273.81 86.9153 273.301 87.4253 273.301 87.0428C273.301 86.7878 274.104 85.6403 274.292 85.6403C274.346 85.6403 274.265 85.9272 274.104 86.2459ZM278.124 86.7559C278.472 87.2022 278.687 87.5528 278.606 87.5528C278.553 87.5528 278.204 87.2022 277.856 86.7559C277.508 86.3097 277.293 85.9591 277.374 85.9591C277.427 85.9591 277.776 86.3097 278.124 86.7559ZM258.294 86.3734C258.294 86.4372 258.026 86.7559 257.732 87.1066C257.142 87.7122 257.142 87.7122 257.464 86.9791C257.732 86.4053 258.294 85.9909 258.294 86.3734ZM266.709 90.1666L266.869 93.9278H265.824C264.538 93.9278 263.922 93.6728 263.922 93.1309C263.922 92.7166 266.36 86.2141 266.467 86.3416C266.494 86.4053 266.601 88.1266 266.709 90.1666ZM270.701 89.7841C271.854 92.8759 271.907 93.1628 271.478 93.5453C271.237 93.7684 270.594 93.9278 270.085 93.8641L269.147 93.7684L269.067 91.3778C268.986 89.2103 269.201 86.0547 269.415 86.3416C269.442 86.3734 270.031 87.9353 270.701 89.7841ZM262.85 87.3934C263.198 87.8397 263.412 88.1903 263.332 88.1903C263.279 88.1903 262.93 87.8397 262.582 87.3934C262.233 86.9472 262.019 86.5966 262.099 86.5966C262.153 86.5966 262.501 86.9472 262.85 87.3934ZM257.892 88.5091C257.624 88.8597 257.356 89.0828 257.276 88.9872C257.196 88.8916 257.356 88.5409 257.624 88.1903C257.892 87.8397 258.16 87.6166 258.241 87.7122C258.321 87.8078 258.16 88.1584 257.892 88.5091ZM260.197 88.0947C260.545 88.6047 260.518 88.6366 260.116 88.2222C259.849 87.9991 259.634 87.7441 259.634 87.6803C259.634 87.4253 259.849 87.5847 260.197 88.0947ZM274.908 88.3497C274.721 88.6366 274.506 88.7641 274.453 88.7003C274.265 88.4772 274.64 87.8716 274.962 87.8716C275.123 87.8716 275.123 88.0628 274.908 88.3497ZM278.392 88.6684C278.928 89.4334 278.553 89.5609 277.99 88.8278C277.722 88.4772 277.642 88.1903 277.776 88.1903C277.936 88.1903 278.204 88.4134 278.392 88.6684ZM260.304 90.1347C260.599 90.6766 260.277 90.8041 259.902 90.2622C259.688 89.9753 259.688 89.7841 259.849 89.7841C260.009 89.7841 260.224 89.9434 260.304 90.1347ZM268.209 92.6209C268.209 93.2903 268.129 94.3422 268.022 94.9159C267.834 95.8722 267.78 95.7128 267.646 93.7684C267.566 92.5253 267.539 91.4416 267.62 91.2822C267.861 90.7084 268.209 91.5053 268.209 92.6209ZM262.126 92.3659C261.858 92.9078 261.483 93.5134 261.269 93.7047C260.813 94.1509 260.974 93.7366 261.831 92.2384C262.528 91.0591 262.716 91.1547 262.126 92.3659ZM273.944 92.6209C273.783 92.8122 273.301 92.0153 273.301 91.5372C273.327 91.3459 273.488 91.5053 273.702 91.8241C273.917 92.1747 274.024 92.5253 273.944 92.6209ZM258.83 93.2903C258.83 93.4497 258.723 93.6091 258.562 93.6091C258.428 93.6091 258.294 93.4497 258.294 93.2903C258.294 93.0991 258.428 92.9716 258.562 92.9716C258.723 92.9716 258.83 93.0991 258.83 93.2903ZM277.32 93.2903C277.32 93.4497 277.266 93.6091 277.213 93.6091C277.132 93.6091 276.999 93.4497 276.918 93.2903C276.838 93.0991 276.891 92.9716 277.025 92.9716C277.186 92.9716 277.32 93.0991 277.32 93.2903ZM274.935 94.1509C275.284 94.6609 275.257 94.6928 274.855 94.2784C274.587 94.0553 274.372 93.8003 274.372 93.7366C274.372 93.4816 274.587 93.6409 274.935 94.1509ZM265.985 94.7566C265.905 94.8522 265.663 94.8841 265.476 94.7884C265.261 94.6928 265.342 94.5972 265.637 94.5972C265.931 94.5653 266.092 94.6609 265.985 94.7566ZM270.272 94.7566C270.192 94.8522 269.951 94.8841 269.763 94.7884C269.549 94.6928 269.629 94.5972 269.924 94.5972C270.219 94.5653 270.38 94.6609 270.272 94.7566ZM266.28 96.6053C266.36 97.2747 266.28 97.4659 266.012 97.3703C265.824 97.2747 264.967 97.0197 264.136 96.7966C261.805 96.1591 262.126 95.5216 264.726 95.6172C266.146 95.6809 266.199 95.7128 266.28 96.6053ZM273.033 95.8403C273.354 96.0634 273.301 96.1909 272.765 96.4141C272.389 96.5734 271.666 96.8284 271.157 96.9241C270.648 97.0516 270.005 97.2428 269.763 97.3066C269.12 97.5297 269.147 96.9559 269.817 96.1591C270.38 95.4897 272.282 95.2666 273.033 95.8403ZM268.209 96.7966C268.209 96.9559 267.968 97.1153 267.673 97.1153C267.378 97.1153 267.137 96.9559 267.137 96.7966C267.137 96.6053 267.378 96.4778 267.673 96.4778C267.968 96.4778 268.209 96.6053 268.209 96.7966Z" fill="#84BF6F"/>
<path d="M39.7925 71.8384C39.7122 71.9341 39.6318 72.5078 39.6318 73.1134C39.6318 73.8147 39.4978 74.1653 39.2566 74.1653C39.0154 74.1653 38.935 73.9422 39.0154 73.5916C39.1494 72.9222 37.7292 71.9022 37.5416 72.5397C37.488 72.7309 37.3004 72.8903 37.0861 72.8903C36.5233 72.8903 36.041 74.6116 36.4161 75.4084C36.7645 76.2372 37.0325 76.2691 36.8181 75.4722C36.7377 75.0897 36.8181 74.8028 37.0861 74.6753C37.4076 74.5478 37.4612 74.6753 37.3272 75.2491C37.1665 76.1097 37.7024 76.4922 38.6939 76.2053C39.3102 76.0141 39.7658 75.0259 40.3017 72.6672C40.4625 71.9978 40.1409 71.4559 39.7925 71.8384ZM38.2651 73.5597C37.8364 73.8784 37.6488 73.6872 37.89 73.2409C37.9704 73.0497 38.1847 72.9859 38.3455 73.0816C38.5063 73.2091 38.4795 73.3684 38.2651 73.5597Z" fill="#84BF6F"/>
</svg>
