<svg width="343" height="204" viewBox="0 0 343 204" fill="none" xmlns="http://www.w3.org/2000/svg">
<g clip-path="url(#clip0_101_56)">
<path d="M180.315 50.0878C179.94 50.1834 179.458 50.534 179.243 50.8528C178.949 51.299 178.118 51.5859 175.867 51.9365C171.714 52.6378 164.371 54.4865 161.156 55.6659C150.866 59.459 134.627 68.1609 119.888 77.819L115.842 80.4328L111.715 80.6559C91.6713 81.6122 69.6443 84.1303 54.4505 87.1584C40.2213 90.0272 31.8071 92.7684 25.0275 96.7528C17.7119 101.024 17.5244 101.311 17.7387 107.59C17.8191 110.045 18.1407 113.105 18.5694 115.527C19.3733 120.022 19.4537 123.082 18.8374 126.078C18.623 127.257 18.5158 128.628 18.5962 129.233C18.8642 130.859 19.8557 133.027 21.1419 134.748L22.2674 136.278H25.1079C28.6719 136.278 29.7169 136.597 30.628 137.999C31.4587 139.306 31.5391 139.306 40.4357 139.784C43.7585 139.975 47.2153 140.198 48.1532 140.294L49.8146 140.485L49.8414 134.461C49.8682 131.178 49.9486 127.608 50.0558 126.556L50.2433 124.643L50.4577 127.831C50.5649 129.584 50.8329 132.007 51.0205 133.186C51.4492 135.64 53.2982 140.453 54.7452 142.812C56.0851 145.012 58.7915 148.231 60.185 149.283C60.8281 149.761 61.3372 150.207 61.3372 150.303C61.3372 150.398 47.912 150.494 31.5123 150.526C15.1394 150.558 1.31225 150.685 0.856703 150.781C-0.75111 151.132 -0.0543913 151.482 2.5985 151.705C4.01873 151.833 18.5158 152.056 34.8083 152.215C51.3956 152.407 65.062 152.662 65.8927 152.821C66.6966 153.012 67.8489 153.331 68.4384 153.554C70.0462 154.128 75.754 154.032 78.6212 153.363C80.8454 152.853 84.1146 152.789 121.094 152.63C169.087 152.438 254.971 153.012 260.706 153.554C265.771 154.064 270.46 154.032 274.774 153.554C277.213 153.267 287.985 153.076 310.468 152.917C328.181 152.789 342.758 152.598 342.865 152.438C343.696 151.482 342.436 151.418 311.406 151.227C294.363 151.1 280.187 150.908 279.919 150.781C279.544 150.59 279.651 150.398 280.616 149.633C281.259 149.123 282.867 147.402 284.18 145.777C286.672 142.717 288.039 140.007 289.405 135.481C290.209 132.835 290.424 125.122 289.807 121.615C288.494 114.316 283.242 106.538 277.508 103.447C268.718 98.6972 258.857 100.801 252.131 108.833C247.549 114.316 245.7 119.767 245.7 127.767C245.727 135.385 247.602 140.804 252.265 146.51C253.256 147.753 254.704 149.251 255.454 149.888L256.82 151.004L199.207 150.813C167.533 150.717 128.892 150.59 113.404 150.59C97.8882 150.558 85.1865 150.462 85.1865 150.335C85.1865 150.207 85.508 149.888 85.9368 149.602C87.2498 148.677 90.2779 145.171 91.4569 143.163C94.3778 138.286 95.5837 133.951 95.8248 127.353C96.066 121.297 96.3608 123.368 96.6823 133.505C96.8163 138.063 96.9771 141.792 97.0307 141.856C97.0843 141.92 130.152 141.856 170.535 141.728L243.958 141.537L244.119 133.409C244.253 126.779 244.387 124.739 244.842 122.317C245.485 119.033 246.959 115.017 248.567 112.18C250.952 108.005 255.695 103.765 260.063 101.885C264.699 99.8765 271.264 99.749 275.846 101.566C284.26 104.913 289.968 113.041 291.388 123.623C291.603 125.249 291.844 129.488 291.951 133.058L292.139 139.529L293.773 139.338C294.684 139.21 299.695 138.35 304.921 137.393C310.146 136.437 316.551 135.385 319.123 135.003C324.322 134.238 327.135 133.6 328.1 133.027C328.824 132.548 333.915 126.173 334.397 125.153C334.612 124.643 334.612 123.847 334.371 121.998C334.103 119.83 334.129 119.097 334.639 115.718C334.933 113.615 335.282 110.14 335.389 107.973L335.55 104.02L334.022 100.482C332.013 95.7328 331.611 93.6928 331.825 89.4215C331.905 87.5728 332.146 84.7359 332.361 83.1103L332.763 80.1459L331.664 78.2972L330.592 76.4484L326.734 76.2253C324.59 76.0978 320.543 75.6834 317.703 75.2372C314.862 74.8228 310.923 74.3128 308.94 74.1215C305.35 73.739 305.269 73.7072 296.882 70.2328C287.289 66.2165 275.9 61.7222 270.782 59.9372C267.539 58.7578 267.325 58.6303 266.976 57.674C266.548 56.4628 265.958 56.2715 258.16 54.7097C247.468 52.574 237.929 51.4584 222.654 50.5022C217.081 50.1834 181.441 49.8328 180.315 50.0878ZM228.952 52.7334C240.019 53.8172 253.417 55.9847 261.59 58.0247C263.895 58.5984 264.243 58.9172 263.466 59.8097L262.903 60.479L260.813 59.5228C258.107 58.2797 255.266 57.4509 251.059 56.6222C243.663 55.1878 230.077 53.7534 217.295 53.0522C209.363 52.6378 190.016 52.829 186.077 53.3709C178.842 54.3909 173.991 55.4109 168.766 57.1003C165.122 58.2797 164.344 58.3434 162.924 57.7378C161.745 57.2278 161.852 57.1959 166.488 55.9528C173.295 54.1678 178.681 53.2434 186.077 52.6059C191.865 52.0959 223.458 52.1915 228.952 52.7334ZM224.932 55.124C229.97 55.634 239.027 56.7815 240.555 57.1003C241.466 57.3234 241.948 57.9928 241.519 58.5028C241.385 58.6622 240.448 58.5984 239.376 58.3434C238.304 58.1203 236.562 57.8015 235.49 57.7059C234.391 57.5784 233.078 57.3553 232.569 57.1959C230.024 56.4628 216.223 55.4428 204.138 55.0922C197.76 54.9009 196.099 54.7734 197.867 54.6459C201.833 54.2953 219.76 54.6459 224.932 55.124ZM251.327 59.1722C260.626 61.1484 265.261 62.6465 282.813 69.3403C300.982 76.2572 308.431 78.5522 315.747 79.4765C317.006 79.604 314.193 79.7634 307.547 79.859C302 79.9547 297.364 80.114 297.257 80.2415C297.15 80.4009 297.15 80.5922 297.257 80.7197C297.364 80.879 303.554 81.1022 311.031 81.2934L324.59 81.6122L325.581 83.8434C326.734 86.4572 327.055 87.509 326.653 87.509C326.492 87.509 326.09 87.1265 325.742 86.6803C324.885 85.469 323.223 84.4172 321.535 84.0347C319.123 83.4609 314.407 83.0465 310.655 83.0465C307.493 83.0465 307.038 83.1103 305.966 83.7797L304.787 84.5447L285.225 84.7678C274.453 84.8953 264.458 85.0865 262.984 85.2459C261.51 85.3734 260.277 85.5009 260.25 85.469C260.224 85.4372 261.376 84.0028 262.796 82.2497C264.216 80.4965 265.851 78.2972 266.387 77.309C266.95 76.3528 267.834 74.8228 268.343 73.9622C269.335 72.3365 269.415 71.699 268.879 69.6909C268.691 69.0215 268.718 68.9897 269.227 69.3084C269.522 69.4997 270.112 69.8184 270.514 70.0097C271.264 70.3284 271.264 70.3284 270.755 69.6909C270.487 69.3084 270.406 69.0215 270.567 69.0215C271.076 69.0215 272.229 70.9659 272.229 71.8265C272.229 72.9103 271.398 74.5678 270.487 75.269C269.951 75.6834 269.871 75.8747 270.139 76.0659C270.406 76.289 270.406 76.3528 270.112 76.3528C269.897 76.3528 269.495 76.5759 269.227 76.8947C268.638 77.5322 268.584 78.9028 269.147 78.9028C269.442 78.9028 269.522 78.6797 269.388 78.1378C269.281 77.564 269.361 77.3409 269.763 77.2453C270.433 77.0222 271.8 74.8228 272.389 72.974C272.925 71.2528 272.711 70.4559 271.371 69.2447C269.335 67.4278 259.875 63.6347 250.925 61.0847C248.406 60.3515 245.78 59.5865 245.03 59.3634C243.958 59.0447 243.663 58.8215 243.61 58.2478C243.529 57.5784 243.583 57.5147 244.414 57.7059C244.896 57.8015 248.004 58.4709 251.327 59.1722ZM160.459 59.204C160.754 60.1603 160.486 60.5428 158.931 61.2122C157.726 61.754 152.42 64.7822 134.627 75.014C125.248 80.4009 124.015 80.9109 121.63 80.624C119.915 80.4009 119.888 80.4009 120.773 80.0503C121.255 79.859 121.577 79.604 121.496 79.4765C120.773 78.6478 146.632 63.8578 155.528 60.0009C159.682 58.2159 160.111 58.1522 160.459 59.204ZM200.761 58.7259C200.895 58.9809 194.625 79.5403 194.303 79.9228C194.009 80.2415 182.164 80.8153 168.793 81.1659C162.094 81.3253 155.448 81.5484 154.054 81.644C150.839 81.8353 150.624 81.6759 151.214 79.6678C151.83 77.5322 151.75 76.3209 150.946 74.9184C150.571 74.249 150.33 73.5478 150.41 73.3247C150.571 72.7828 155.93 69.5634 160.888 67.0134C173.295 60.6703 181.441 58.7259 196.581 58.5665C198.805 58.5347 200.708 58.5984 200.761 58.7259ZM204.701 58.8853C204.701 59.1084 204.165 62.4553 203.521 66.3122C202.878 70.169 202.128 74.6953 201.887 76.3528C201.619 78.0103 201.324 79.5084 201.217 79.6359C201.003 79.9547 196.42 80.0184 196.179 79.7315C196.018 79.5403 199.556 67.6828 202.262 59.3634C202.503 58.6303 202.691 58.5028 203.629 58.5028C204.299 58.5028 204.701 58.6622 204.701 58.8853ZM213.276 58.8215C220.779 59.3634 230.426 60.5109 236.026 61.5628C240.501 62.4234 250.014 64.9097 254.141 66.3122C258.964 67.9697 264.458 70.3284 264.27 70.7109C264.216 70.8384 263.895 70.8703 263.573 70.7428C263.037 70.5515 263.037 70.5834 263.359 71.0615C263.627 71.444 263.948 71.5397 264.404 71.4122L265.047 71.2209L264.19 73.0697C263.064 75.3965 261.322 78.4884 260.947 78.7434C260.786 78.8709 259.661 78.8709 258.428 78.7434C256.552 78.5522 256.177 78.4247 256.07 77.9147C255.883 77.1178 254.918 77.1178 254.73 77.9147C254.57 78.6478 253.98 78.6797 224.584 79.4128C209.953 79.7634 203.227 79.8272 203.039 79.604C202.852 79.3809 203.28 76.034 204.459 68.894L206.174 58.5028H207.514C208.265 58.5028 210.837 58.6622 213.276 58.8215ZM167.962 59.5865C167.908 59.6503 166.89 60.0965 165.711 60.5747C159.548 63.1247 151 67.9378 138.057 76.0978C129.964 81.1659 125.141 83.7159 123.64 83.6522C123.345 83.6522 124.31 83.0784 125.784 82.3772C127.258 81.7078 134.439 77.564 141.728 73.1972C155.877 64.7184 160.325 62.264 164.612 60.5428C166.997 59.5865 168.31 59.204 167.962 59.5865ZM271.344 62.2003C277.749 64.5272 287.556 68.4478 287.423 68.6072C287.289 68.7347 285.252 68.0653 272.497 63.5709C268.745 62.2322 265.797 61.0528 265.797 60.8615C265.797 60.4153 267.914 60.9253 271.344 62.2003ZM267.78 70.8384C267.888 71.1253 267.673 71.9859 267.352 72.719C266.682 74.2172 263.386 79.1897 263.037 79.2215C262.93 79.2215 263.413 78.1697 264.136 76.8947C265.797 73.9622 266.601 72.1134 266.601 71.1572C266.601 70.7428 266.682 70.3284 266.762 70.2009C267.003 69.914 267.62 70.2965 267.78 70.8384ZM316.444 77.0222C320.49 77.5322 325.072 78.074 326.626 78.1697C329.333 78.329 330.378 78.7434 330.378 79.604C330.378 79.7634 329.092 79.8272 327.511 79.7953C325.26 79.7315 324.643 79.604 324.697 79.2853C324.724 79.0303 324.563 78.9028 324.295 78.9665C324 79.0303 323.786 79.4128 323.732 79.9547L323.652 80.8153L314.621 80.7515L305.591 80.7197L313.496 80.4328C322.258 80.1459 323.009 80.0503 323.25 79.349C323.545 78.4565 323.143 78.2653 321.187 78.2653C319.043 78.2653 313.844 77.564 310.146 76.799C307.601 76.2572 306.154 75.6515 308.003 75.9065C308.592 75.9703 312.397 76.4803 316.444 77.0222ZM148.963 78.584C148.963 79.2215 149.07 79.859 149.231 80.0503C149.66 80.5603 149.124 81.134 147.811 81.6122C147.114 81.8672 146.551 81.9947 146.551 81.899C146.551 81.8034 146.926 81.3572 147.355 80.9109C148.24 80.0503 148.374 79.1897 147.757 78.584C147.409 78.2334 147.409 78.1059 147.945 77.5003C148.668 76.7034 148.963 76.9903 148.963 78.584ZM259.205 81.4209L261.59 81.6122L260.411 82.8234C259.768 83.4928 258.937 84.3534 258.562 84.7678C258.026 85.3097 257.33 85.5647 255.213 85.8515C248.862 86.7759 237.795 90.6965 232.542 93.9159C231.229 94.6809 231.149 95.3184 232.409 95.0634C233.748 94.8084 237.473 92.6728 237.259 92.2903C237.152 92.099 237.446 91.9715 238.009 91.9715C238.491 91.9715 240.823 91.334 243.181 90.569C249.666 88.4334 255.507 87.0309 256.338 87.4134C256.552 87.509 256.285 88.1465 255.534 89.1665C253.31 92.2903 251.515 94.5215 251.193 94.5215C251.032 94.5215 250.684 94.9997 250.47 95.6053C250.014 96.7209 245.539 103.925 243.904 106.156C243.395 106.857 242.029 108.993 240.876 110.937C238.733 114.571 237.848 115.718 236.803 116.324C236.428 116.547 236.026 117.28 235.731 118.268L235.276 119.862L235.249 117.886C235.249 115.942 234.874 115.049 234.418 115.91C234.284 116.165 234.177 116.993 234.177 117.79C234.177 119.448 233.856 119.99 232.864 120.053C232.194 120.085 232.221 120.117 232.971 120.34C233.775 120.595 233.775 120.595 232.757 120.627C232.194 120.627 231.39 120.436 230.935 120.181C230.506 119.894 230.024 119.767 229.89 119.862C229.595 120.085 217.215 120.946 211.132 121.169C208.854 121.233 203.87 121.488 200.091 121.711C193.982 122.062 193.151 122.03 192.99 121.615C192.374 119.99 192.749 95.414 193.446 92.5453L193.714 91.3978L195.67 91.2065C199.448 90.824 199.582 90.7922 198.135 90.7284L196.795 90.6328L197.867 90.2184C198.939 89.804 198.912 89.804 196.581 89.7722C194.25 89.7403 194.223 89.7403 194.411 89.0072C194.652 88.0828 196.34 85.1184 197.492 83.6203L198.403 82.4409L213.811 82.1222C222.279 81.9628 231.149 81.899 233.507 82.0265L237.795 82.2497L237.875 83.7797C238.063 87.1584 236.937 87.7959 229.22 88.784C226.888 89.0709 207.97 89.7403 202.208 89.7403C200.467 89.7403 200.145 89.8359 200.145 90.2503C200.145 90.7284 201.512 90.7603 216.84 90.6009C226.031 90.5053 233.936 90.2822 234.445 90.1228L235.383 89.804L234.445 89.7403C233.668 89.6765 233.775 89.6128 235.249 89.2303C237.554 88.6247 238.223 87.9872 238.893 85.7559C239.536 83.6203 240.421 82.6003 242.029 82.0584C244.092 81.389 254.328 80.9747 259.205 81.4209ZM330.351 84.1622C330.217 85.7559 330.003 88.3059 329.896 89.8997L329.681 92.7684L328.663 88.9434C328.073 86.8397 327.403 84.6084 327.162 84.0028C326.09 81.4528 326.09 81.4847 328.422 81.389C329.574 81.3253 330.539 81.2934 330.565 81.2934C330.592 81.3253 330.512 82.6003 330.351 84.1622ZM111.26 82.8553L112.305 83.2697L110.456 83.4609C109.464 83.5884 107.562 83.684 106.222 83.6522H103.81L105.15 83.2059C107.937 82.3134 109.759 82.2178 111.26 82.8553ZM195.456 82.6959L196.527 82.9509L195.134 84.5765C194.357 85.5009 193.714 86.3934 193.714 86.5528C193.714 86.744 193.526 86.9672 193.312 87.0628C193.097 87.1584 192.856 87.509 192.776 87.8278C192.374 89.3259 189.962 89.6765 175.492 90.3778C167.292 90.7603 136.368 92.1628 129.348 92.4815C126.132 92.609 124.578 92.5772 124.578 92.354C124.578 92.1947 124.953 91.079 125.382 89.8997C126.32 87.3815 126.32 87.4772 125.73 87.7322C124.846 88.0828 124.337 88.8478 123.854 90.4415C123.586 91.334 123.131 92.2584 122.836 92.4815C122.247 92.9278 117.584 93.2784 101.801 94.0753C93.9758 94.4578 91.6713 94.6809 91.3497 95.0315C91.0282 95.414 91.7517 95.4778 96.5751 95.4778C101.72 95.4778 115.387 94.8403 120.773 94.3303L122.997 94.139L122.863 95.2228C122.782 95.7965 122.595 97.8365 122.434 99.749C122.273 101.662 122.005 103.51 121.871 103.829C121.657 104.339 121.228 104.403 118.602 104.435C116.941 104.467 114.154 104.594 112.385 104.722L109.17 104.913L113.591 105.04C117.771 105.168 117.879 105.168 115.467 105.359C113.243 105.518 113.484 105.55 117.557 105.614L122.166 105.678V106.443C122.166 106.857 121.979 107.303 121.737 107.399C121.496 107.495 119.62 107.59 117.53 107.59C111.528 107.622 106.624 108.068 106.142 108.642C105.766 109.088 105.927 109.375 107.508 111.352C108.5 112.563 109.304 113.774 109.304 114.029C109.304 114.316 109.866 115.049 110.59 115.655C112.466 117.28 112.76 117.376 111.715 116.069C110.938 115.081 110.858 114.858 111.179 114.603C111.635 114.252 117.879 114.188 120.585 114.475L122.381 114.698L122.541 116.165C122.863 118.81 123.05 123.209 122.863 123.209C122.327 123.209 118.602 120.595 113.779 116.77C111.287 114.826 110.429 114.348 111.93 115.75C112.439 116.228 112.948 116.93 113.055 117.344C113.189 117.758 113.43 118.109 113.591 118.109C113.752 118.109 113.806 117.95 113.725 117.79C113.645 117.599 113.698 117.472 113.832 117.472C113.993 117.472 114.127 117.758 114.127 118.109C114.127 118.842 115.306 119.862 115.869 119.575C116.11 119.48 116.271 119.575 116.271 119.798C116.271 120.372 117.316 121.265 120.317 123.209C121.711 124.133 122.916 124.962 123.024 125.09C123.292 125.377 124.149 130.827 123.962 131.05C123.747 131.305 112.653 131.783 106.356 131.815H100.836L100.38 127.576C99.8176 122.412 99.2012 119.448 97.781 115.113C96.468 111.128 95.2085 108.738 92.8504 105.742C90.5458 102.873 88.7773 101.279 86.0976 99.6534C79.9343 95.9878 72.1096 95.1909 65.2228 97.5497C60.8013 99.0797 57.0498 101.343 57.0498 102.49C57.0498 102.841 56.9158 103.192 56.7282 103.319C56.5138 103.478 56.487 103.383 56.5942 103.032C56.6746 102.713 56.6746 102.49 56.5406 102.49C56.1922 102.49 52.7622 106.921 52.7622 107.367C52.7622 107.59 52.4675 108.26 52.0923 108.865C51.7172 109.471 51.4224 109.822 51.4224 109.694C51.4224 109.567 51.6636 109.025 51.9851 108.483C52.3067 107.973 52.4943 107.495 52.4139 107.399C52.1727 107.08 50.029 110.937 48.8499 113.87C47.3225 117.631 46.3846 122.763 46.1702 128.277C46.063 131.146 46.0898 132.166 46.3042 131.815C46.5186 131.465 46.599 132.007 46.599 133.887C46.599 135.29 46.6794 136.788 46.7598 137.234C46.8937 137.872 46.8401 137.935 46.6258 137.553C46.3578 137.138 46.3042 137.138 46.063 137.553C45.8487 137.967 45.0983 138.031 41.454 137.935C34.7547 137.808 32.879 137.489 31.6731 136.405L30.6816 135.513L33.4685 135.13C36.2822 134.748 38.2919 134.047 38.2919 133.441C38.2919 133.25 38.9351 132.58 39.739 131.975C42.1775 130.03 43.7317 126.715 44.0801 122.603C44.4016 119.193 43.3298 118.778 35.8266 119.32C29.3686 119.798 29.0738 119.958 27.466 123.974C26.8229 125.6 26.0726 127.13 25.8046 127.353C25.3758 127.799 25.349 127.735 25.5098 126.397C25.7778 123.942 26.7693 120.659 27.5196 119.671C28.3503 118.587 30.1189 117.95 33.4149 117.599C35.5855 117.344 36.2554 116.866 34.4868 116.77C33.3613 116.738 33.3613 116.738 34.8083 116.515L36.2822 116.292L34.6476 116.26C32.6914 116.197 28.6451 116.993 27.6 117.631C26.4745 118.3 25.9386 119.48 24.8935 123.687L23.902 127.512L22.0798 127.608L20.2576 127.703L20.4452 126.811C20.5256 126.333 20.6864 124.229 20.7936 122.189L20.9544 118.428L22.321 117.503C23.0981 116.993 23.8484 116.356 24.0628 116.101C24.4647 115.527 24.8667 110.873 24.8935 106.889C24.8935 103.415 24.4647 102.65 22.2406 102.172C21.4367 101.98 20.74 101.789 20.6596 101.725C20.3112 101.311 27.6804 97.5815 31.0568 96.4659C40.4089 93.374 49.2251 91.3978 63.615 89.1347C79.8003 86.5847 100.246 84.449 111.313 84.1622C119.352 83.9709 115.949 84.449 101.533 85.5965C76.7455 87.5409 62.0072 89.4853 47.9388 92.6409C41.0788 94.2028 31.8071 97.454 28.779 99.3984C27.3052 100.323 27.1712 100.514 27.198 101.438C27.2516 102.682 28.5647 105.072 29.4758 105.582C30.2261 105.997 33.8169 105.773 40.4357 104.849C45.929 104.116 47.4029 103.638 49.1983 102.044C51.8512 99.7172 54.5576 96.4978 55.6831 94.3622C56.2994 93.2147 56.9158 92.2903 57.0765 92.2903C57.2373 92.2903 60.5333 91.7803 64.3921 91.1747C76.2363 89.294 83.8198 88.4972 105.552 86.8715C118.817 85.8834 123.452 85.3097 125.864 84.4809C126.668 84.194 127.365 84.0347 127.418 84.0984C127.713 84.449 126.936 85.9153 126.293 86.2978C125.891 86.5209 125.489 86.9034 125.435 87.1265C125.355 87.4772 125.435 87.509 125.891 87.2222C126.186 86.999 126.454 86.9353 126.454 87.0309C126.454 87.1584 126.775 86.9353 127.15 86.5847C127.552 86.2022 128.303 85.7878 128.839 85.5965C129.723 85.3415 145.185 84.5128 165.711 83.684C174.527 83.3334 187.631 82.7597 189.962 82.6003C192.99 82.4409 194.411 82.4409 195.456 82.6959ZM317.971 84.5128C318.319 84.6403 318.507 84.8634 318.4 85.1184C318.319 85.3734 318.614 85.7559 319.123 86.0747C319.606 86.3615 319.927 86.6484 319.874 86.7122C319.847 86.744 319.204 86.6803 318.453 86.5528C316.792 86.2022 315.479 86.1703 315.72 86.4572C315.827 86.5528 315.666 86.8397 315.372 87.0947C314.595 87.7322 314.702 88.274 315.854 89.804L316.845 91.1428L315.961 90.3778C315.479 89.9315 314.595 88.8478 314.005 87.9234C312.906 86.2659 311.861 85.5009 311.674 86.2022C311.62 86.4253 310.736 86.5528 309.208 86.5528C307.574 86.5528 306.797 86.6803 306.716 86.9353C306.636 87.1903 306.555 87.1265 306.555 86.8078C306.529 86.5209 306.743 86.1065 307.011 85.9472C307.44 85.6284 307.44 85.6284 307.011 85.5965C306.18 85.5965 306.261 85.0547 307.145 84.5128C307.895 84.0347 308.619 84.0028 312.692 84.1622C315.264 84.2578 317.649 84.4172 317.971 84.5128ZM306.073 87.6684C307.52 89.6128 311.191 92.6409 313.496 93.7565C314.353 94.1709 316.176 94.649 317.569 94.8722C323.223 95.669 323.304 95.7009 320.329 95.8284L317.649 95.924L319.793 96.1153L321.937 96.3065L319.847 96.3703C318.534 96.4022 317.81 96.5615 317.917 96.7528C318.025 96.944 320.008 97.0715 323.036 97.0715H327.966L328.556 95.6372C328.877 94.8403 329.306 94.2028 329.494 94.2028C329.681 94.2028 330.056 94.7447 330.298 95.3822C330.539 96.0515 331.369 98.219 332.173 100.227C332.95 102.203 333.594 103.893 333.594 103.957C333.594 104.02 332.656 104.052 331.53 104.02C329.52 103.988 329.494 103.988 330.914 103.797C332.307 103.606 332.2 103.574 329.172 103.192C322.634 102.363 319.954 101.215 313.442 96.4978C311.7 95.2547 310.28 94.394 310.28 94.6172C310.253 94.8084 309.959 94.5534 309.61 94.0434C309.235 93.5015 308.94 93.2784 308.94 93.5334C308.94 93.7884 308.86 93.9159 308.78 93.8203C308.699 93.6928 308.619 93.5015 308.646 93.3422C308.646 92.8959 307.52 91.6528 307.118 91.6528C306.797 91.6528 306.797 91.7165 307.091 92.1947C307.359 92.5453 307.359 92.6409 307.145 92.4815C306.555 92.0672 306.797 92.7365 307.413 93.2784C307.735 93.5653 309.262 94.8084 310.816 96.0197C318.909 102.458 322.553 103.988 330.994 104.594C333.406 104.753 334.129 104.913 334.129 105.263C334.129 106.283 333.54 112.085 333.165 114.571C332.95 116.037 332.79 118.555 332.79 120.149C332.79 121.743 332.682 123.241 332.548 123.464C332.146 124.261 331.235 122.348 330.78 119.767C330.539 118.428 330.298 117.153 330.244 116.993C330.137 116.611 330.003 120.436 330.056 121.711C330.137 122.986 330.86 124.516 331.477 124.707C331.745 124.803 331.986 125.058 331.986 125.281C331.986 125.855 329.306 128.692 328.931 128.532C328.743 128.437 328.636 126.46 328.636 122.253C328.636 115.24 328.85 115.814 326.064 115.4C324.134 115.113 310.468 115.75 301.196 116.515C297.15 116.866 293.827 117.121 293.827 117.089C293.8 117.025 293.559 116.197 293.291 115.24C291.254 108.037 285.707 101.47 278.74 98.0278C275.096 96.2109 274.104 96.0515 267.727 96.179C262.233 96.3065 261.778 96.3703 259.634 97.199C255.749 98.729 251.997 101.279 251.166 102.968C251.032 103.287 250.362 104.052 249.719 104.69C248.701 105.71 248.594 105.742 248.915 105.04L249.264 104.243L248.513 105.04C247.281 106.379 245.432 109.439 245.566 109.885C245.646 110.108 245.539 110.587 245.325 110.937C244.949 111.543 244.923 111.543 245.083 110.778L245.217 109.981L244.789 110.682C243.127 113.328 241.305 119.352 240.662 124.165L240.206 127.672L239.402 127.831C238.974 127.895 237.044 128.054 235.115 128.15L231.631 128.341L232.837 126.875C233.507 126.078 234.311 125.345 234.633 125.249C235.035 125.122 235.41 124.452 235.973 122.795C236.482 121.265 236.91 120.404 237.339 120.181C237.661 120.022 237.929 119.703 237.929 119.543C237.929 118.747 246.691 104.467 249.103 101.311C249.666 100.578 250.148 99.7809 250.202 99.5578C250.336 98.9203 251.381 97.709 251.783 97.709C251.97 97.709 252.131 97.454 252.131 97.1353C252.131 96.5297 252.747 95.5734 256.392 90.5372C258.857 87.1265 258.964 87.0309 260.277 86.7759C262.367 86.3934 276.811 86.0109 291.522 85.979L304.787 85.9153L306.073 87.6684ZM310.95 87.7959C311.513 87.8278 312.37 88.4334 313.764 89.7722C314.862 90.8559 316.149 91.9397 316.578 92.1628L317.381 92.5772H316.578C315.479 92.609 313.121 91.3978 310.709 89.6128C308.324 87.8597 308.11 87.5409 309.289 87.6684C309.744 87.7322 310.521 87.764 310.95 87.7959ZM191.999 92.4178C191.382 95.3503 191.007 117.185 191.516 120.022C191.624 120.627 191.677 121.424 191.624 121.807C191.543 122.444 191.436 122.476 188.167 122.317C186.264 122.221 183.665 122.317 182.218 122.54C180.798 122.763 177.689 123.05 175.304 123.145C172.919 123.273 170.883 123.496 170.802 123.592C170.025 124.516 172.383 124.675 180.985 124.261C185.032 124.07 185.487 124.006 185.621 123.464C185.755 122.763 186.023 122.731 186.479 123.368C186.666 123.623 186.934 123.847 187.068 123.847C187.229 123.847 187.283 123.623 187.175 123.368C187.068 122.986 187.283 122.89 188.408 122.89C189.694 122.89 189.748 122.922 189.266 123.368C188.81 123.783 188.864 123.815 190.123 123.847C191.731 123.847 191.811 123.942 192.026 127.066C192.133 128.405 192.079 129.265 191.892 129.393C191.57 129.616 174.554 130.381 161.96 130.763C154.537 130.955 152.527 131.369 158.208 131.497C159.682 131.528 161.558 131.688 162.361 131.815C163.165 131.975 159.28 132.007 153.652 131.911C144.059 131.752 141.219 131.592 144.836 131.433C145.694 131.369 141.728 131.273 135.967 131.178L125.516 131.018L125.167 128.373C124.953 126.907 124.846 125.663 124.899 125.6C124.953 125.536 126.186 125.6 127.66 125.759C129.133 125.918 132.778 126.046 135.779 126.078C140.308 126.078 141.192 126.014 141.192 125.632C141.192 124.994 140.066 124.867 132.885 124.643C125.945 124.452 125.114 124.293 124.658 123.209C124.39 122.476 123.747 114.922 123.962 114.635C124.015 114.539 125.757 114.348 127.874 114.22C133.34 113.838 133.769 113.487 131.759 110.905C130.018 108.674 128.705 107.877 126.266 107.686C125.114 107.59 123.962 107.367 123.72 107.208C123.024 106.793 123.131 106.028 123.908 105.805C124.846 105.518 129.08 106.252 130.366 106.921C130.982 107.24 132.59 108.77 133.984 110.268C136.904 113.487 137.44 113.933 137.44 113.105C137.44 112.18 132.671 106.857 131.009 105.901C130.205 105.455 128.571 104.913 127.392 104.69C126.212 104.498 124.899 104.212 124.444 104.084L123.64 103.893V101.183C123.64 99.7172 123.747 97.5497 123.854 96.4022L124.069 94.2984L126.614 94.0753C133.742 93.5334 134.386 93.4378 133.287 93.2147C132.456 93.0553 132.724 93.0234 134.412 92.9597C135.618 92.9597 136.636 93.0234 136.69 93.1509C136.744 93.3103 140.334 93.2465 144.676 93.0553C149.017 92.8322 157.216 92.5134 162.897 92.3222C168.578 92.099 173.589 91.9078 174.018 91.844C174.474 91.8122 178.734 91.7165 183.504 91.7165L192.16 91.6528L191.999 92.4178ZM54.4505 93.884C54.2093 94.9997 53.7001 95.2547 52.789 94.7128C52.3603 94.4259 51.7708 94.2028 51.5028 94.2028C50.7793 94.2028 51.4492 93.629 52.3603 93.4697C54.2897 93.1509 54.5844 93.2147 54.4505 93.884ZM311.754 95.7965C312.397 96.3384 313.014 96.9122 313.121 97.1034C313.201 97.2947 312.612 96.9122 311.781 96.2428C310.95 95.6053 310.28 95.0315 310.28 94.9678C310.28 94.6809 310.655 94.904 311.754 95.7965ZM51.6904 97.2309C52.0655 97.7728 50.5649 99.3028 49.627 99.3028C49.2251 99.3028 48.6891 99.5259 48.4212 99.8447C47.9656 100.323 47.9388 100.291 47.9388 98.7609C47.9388 97.1353 47.9388 97.1353 48.9571 96.8484C50.1362 96.4978 51.2884 96.6572 51.6904 97.2309ZM274.667 97.9959C277.106 98.6653 280 100.004 282.358 101.534C283.483 102.267 283.912 102.395 284.073 102.108C284.234 101.789 284.287 101.821 284.287 102.172C284.287 102.458 285.145 103.67 286.19 104.881C290.102 109.471 292.594 114.922 293.8 121.583C294.47 125.249 294.872 133.6 294.47 135.768C294.283 136.947 294.068 137.489 293.934 137.234C293.827 137.011 293.639 134.429 293.532 131.528C293.264 123.082 292.701 119.448 290.853 114.73C287.905 107.048 282.17 101.407 275.203 99.2709C272.309 98.3784 264.35 98.4103 261.43 99.2709C254.998 101.247 249.317 106.507 245.753 113.774C244.842 115.623 244.092 117.44 244.092 117.79C244.092 118.141 244.012 118.428 243.878 118.428C243.77 118.428 243.449 120.181 243.181 122.317C242.591 126.875 242.323 127.99 241.761 127.99C241.439 127.99 241.385 127.735 241.519 126.715C241.6 126.014 241.761 124.867 241.841 124.165C241.948 123.305 241.921 122.89 241.707 122.89C241.546 122.89 241.412 122.603 241.412 122.221C241.412 121.838 241.519 121.679 241.707 121.775C241.895 121.934 241.921 121.615 241.787 120.818C241.68 120.022 241.707 119.671 241.895 119.798C242.029 119.926 242.243 119.543 242.35 118.874C242.431 118.237 242.806 117.185 243.127 116.547C243.931 115.049 245.861 110.491 246.075 109.63C246.182 109.248 246.504 108.674 246.825 108.355C247.388 107.75 247.388 107.75 247.066 108.483C246.557 109.662 246.879 109.63 247.629 108.483C248.272 107.495 253.873 100.673 253.578 101.247C253.337 101.757 253.9 101.534 256.043 100.387C258.401 99.1115 261.912 97.8365 264.324 97.3903C266.709 96.9759 272.041 97.2628 274.667 97.9959ZM46.9741 97.9003C47.2421 98.7609 47.1617 100.737 46.8133 101.279C46.6258 101.566 45.929 101.98 45.2591 102.172C44.5892 102.363 43.8389 102.618 43.5709 102.682C43.1958 102.809 43.303 102.427 44.0801 100.673C44.6428 99.494 45.2591 98.2509 45.4735 97.9322C45.9826 97.2628 46.7598 97.2309 46.9741 97.9003ZM77.4154 97.8684C80.4166 98.4103 83.4179 99.5259 85.9904 101.056C88.0537 102.299 88.3485 102.395 87.8662 101.693C87.5714 101.279 87.5982 101.247 87.9733 101.407C88.2145 101.502 88.4021 101.725 88.4021 101.853C88.4021 102.267 89.7687 104.084 90.0635 104.084C90.2243 104.084 90.1707 103.861 89.9831 103.542C89.2864 102.554 90.5994 103.606 91.4837 104.753C91.9393 105.359 92.0465 105.614 91.7517 105.327C89.7955 103.478 90.8406 104.913 93.1451 107.24C93.5471 107.654 93.6811 107.813 93.4399 107.59C93.1719 107.367 92.9576 107.303 92.9576 107.463C92.9576 107.909 94.1098 109.184 94.5386 109.216C94.8065 109.216 94.8333 109.28 94.6458 109.407C94.4046 109.503 94.619 110.3 95.3425 111.989C95.9052 113.328 96.7091 115.527 97.0843 116.834C98.7457 122.253 100.112 131.114 99.4156 131.624C98.9869 131.943 98.7189 130.891 98.049 126.078C96.7359 116.483 94.0026 109.917 89.4204 105.359C86.9283 102.873 85.0257 101.598 81.8905 100.323C79.3447 99.2709 78.8624 99.2072 75.1376 99.0478C68.5724 98.8247 64.6065 99.8128 60.0778 102.841C57.2373 104.753 53.5662 109.12 51.9851 112.499C49.4394 117.854 48.5283 122.508 48.2336 131.688C48.1264 135.067 47.9656 137.967 47.8316 138.095C47.3493 138.668 47.1349 137.107 47.1349 132.931C47.1349 123.305 48.5283 116.388 51.6368 110.842C52.3335 109.598 54.0217 107.208 55.3883 105.55C56.7282 103.861 57.8537 102.331 57.8537 102.108C57.8537 101.789 57.9072 101.789 58.0948 102.108C58.2556 102.427 58.6844 102.267 60.051 101.407C62.7307 99.6534 66.7234 98.219 70.5822 97.6134C72.4044 97.3265 75.0305 97.4222 77.4154 97.8684ZM40.1409 98.1872C40.8912 98.6334 41.4004 99.8765 41.0252 100.291C40.918 100.418 40.1677 100.578 39.3638 100.642C37.9972 100.737 37.89 100.673 37.8096 100.004C37.7024 99.1115 38.4259 97.709 38.9887 97.709C39.203 97.709 39.739 97.9322 40.1409 98.1872ZM36.1482 101.215C36.1482 103.542 35.907 103.765 33.1201 103.765C31.1908 103.765 31.0836 103.733 30.3869 102.777C30.0117 102.203 29.7973 101.662 29.9045 101.534C30.0117 101.407 31.03 100.992 32.1287 100.61C33.2273 100.227 34.4332 99.7809 34.8083 99.6215C36.0678 99.1115 36.1482 99.2072 36.1482 101.215ZM77.6833 102.554C81.5421 103.383 85.0793 105.869 88.3753 110.013C92.1269 114.73 93.9758 119.671 94.217 125.759C94.6458 135.449 90.3851 144.374 83.0159 149.315L81.5153 150.303H73.1815H64.8476L63.5614 149.474C58.9523 146.446 54.906 140.804 53.325 135.098C51.3688 128.182 51.6636 122.253 54.2897 116.069C58.6576 105.646 67.8221 100.355 77.6833 102.554ZM272.577 103.478C275.659 104.148 279.169 106.411 281.929 109.471C286.431 114.475 288.655 120.436 288.628 127.48C288.575 137.17 284.234 145.553 277.079 149.761L275.31 150.781L267.914 150.877L260.518 151.004L258.401 149.602C255.32 147.593 251.059 142.493 249.505 138.923C247.549 134.461 246.745 129.265 247.281 124.707C248.594 113.551 255.936 104.626 264.994 103.096C266.628 102.841 270.567 103.032 272.577 103.478ZM55.174 104.881C54.6916 105.487 54.2093 105.901 54.1289 105.805C53.9949 105.646 55.6563 103.797 55.9511 103.765C56.0315 103.765 55.6831 104.275 55.174 104.881ZM20.8472 105.263C20.874 105.136 21.0883 105.136 21.3295 105.327C21.6511 105.518 21.8655 105.487 22.1066 105.136C22.6694 104.18 22.9909 104.977 22.5622 106.379C22.0262 108.228 22.4014 113.965 23.0445 113.965C23.1785 113.965 23.2857 114.188 23.2857 114.443C23.2857 114.762 23.0177 114.922 22.4818 114.922C21.5439 114.922 21.4367 115.336 22.2942 115.782L22.8837 116.101L22.2674 116.324C21.919 116.483 21.5707 116.483 21.4903 116.388C21.4099 116.292 21.0615 114.985 20.7132 113.519C20.204 111.128 20.1772 110.81 20.5256 110.65C20.9544 110.459 20.9276 109.375 20.472 105.518C20.3648 104.594 20.3916 104.403 20.5792 104.881C20.7132 105.232 20.8472 105.391 20.8472 105.263ZM23.8216 108.738C23.8216 113.296 23.4733 114.22 23.1785 110.491C23.0177 108.547 23.3929 104.403 23.7144 104.403C23.768 104.403 23.8216 106.347 23.8216 108.738ZM90.5458 107.431C90.7334 107.686 90.7602 107.909 90.5994 107.909C90.4655 107.909 90.1975 107.686 90.0099 107.431C89.8223 107.176 89.7955 106.953 89.9563 106.953C90.0903 106.953 90.3583 107.176 90.5458 107.431ZM119.352 108.419C117.102 108.929 112.064 109.407 111.876 109.152C111.474 108.706 110.751 108.802 110.376 109.343C110.134 109.694 109.92 109.726 109.572 109.503C109.304 109.312 108.902 109.28 108.687 109.375C108.446 109.471 107.991 109.375 107.642 109.12C107.08 108.738 107.294 108.674 109.706 108.515C112.734 108.323 120.183 108.26 119.352 108.419ZM121.818 109.248C121.979 109.471 122.166 110.14 122.247 110.714L122.434 111.766L121.148 110.587C120.451 109.917 119.781 109.248 119.647 109.12C119.486 108.993 119.862 108.865 120.478 108.865C121.067 108.865 121.684 109.057 121.818 109.248ZM128.49 109.949C129.214 110.427 130.232 111.224 130.741 111.766L131.652 112.69H128.115C124.926 112.69 124.524 112.627 124.042 112.053C123.506 111.415 123.345 110.332 123.694 109.343C123.962 108.483 126.829 108.865 128.49 109.949ZM119.352 110.937L120.424 111.543L119.352 111.766C118.763 111.893 116.887 112.021 115.172 112.021C112.278 112.053 110.697 111.734 109.92 111.001C109.089 110.268 110.054 110.077 114.1 110.204C117.423 110.332 118.495 110.459 119.352 110.937ZM120.585 113.296L121.228 113.933L117.691 113.965C114.315 113.965 112.787 113.678 112.787 113.041C112.787 112.882 114.395 112.722 116.351 112.722C119.567 112.658 119.996 112.722 120.585 113.296ZM327.645 117.089C328.315 117.535 328.502 118.938 327.832 118.619C326.171 117.854 323.759 117.695 319.766 118.045C317.489 118.268 315.398 118.555 315.104 118.747C314.112 119.384 314.193 122.093 315.291 124.612C315.854 125.918 318.239 128.883 319.498 129.807C320.811 130.795 323.223 131.815 324.322 131.815C325.903 131.847 324.429 132.357 322.205 132.58C319.82 132.803 310.2 134.429 301.571 136.087C298.49 136.692 295.89 137.138 295.837 137.075C295.783 137.011 295.756 135.608 295.783 133.983C295.837 130.508 295.381 124.006 294.899 120.914C294.55 118.81 294.577 118.715 295.113 118.587C296.051 118.332 304.68 117.503 310.28 117.153C313.147 116.962 316.229 116.77 317.113 116.707C320.597 116.483 327.028 116.707 327.645 117.089ZM236.991 119.033C236.91 119.225 236.696 119.384 236.535 119.384C236.374 119.384 236.374 119.193 236.589 118.906C236.964 118.364 237.286 118.492 236.991 119.033ZM41.8291 121.042C41.4808 121.233 41.2664 121.583 41.3468 121.807C41.4272 122.062 41.3736 122.317 41.2128 122.444C41.052 122.54 40.9984 122.827 41.0788 123.05C41.1592 123.305 41.0252 123.655 40.8108 123.878C40.5965 124.07 40.4893 124.325 40.5697 124.42C40.6501 124.516 40.5697 124.771 40.3821 125.026C40.1409 125.377 40.1677 125.6 40.4893 125.982C40.8108 126.333 40.8644 126.715 40.6769 127.417C40.3821 128.723 39.1762 130.54 38.6135 130.54C38.3723 130.54 37.8096 130.827 37.354 131.178C36.7913 131.624 36.0946 131.815 35.0763 131.815C33.013 131.815 31.9143 131.369 30.762 130.062C30.2261 129.425 29.2614 128.723 28.6183 128.468C27.5464 128.086 27.5196 128.022 28.2431 128.022C29.3686 127.958 29.5294 127.767 30.4672 125.6C31.5391 123.05 32.3966 122.062 34.0312 121.615C35.2639 121.265 39.2298 120.787 41.5076 120.723C42.3919 120.691 42.3919 120.723 41.8291 121.042ZM330.887 122.285C331.343 124.102 331.075 124.197 330.565 122.444C330.324 121.615 330.244 120.978 330.351 120.978C330.458 120.978 330.699 121.552 330.887 122.285ZM31.03 121.807C30.8424 122.093 30.2529 123.337 29.7169 124.58C28.2699 127.958 27.3856 127.735 28.7522 124.325C29.3686 122.731 30.0117 121.87 30.7888 121.52C31.4051 121.265 31.4051 121.265 31.03 121.807ZM233.614 122.317C233.078 123.592 230.372 127.672 229.863 127.99C229.595 128.182 229.139 128.309 228.845 128.309C228.148 128.309 228.094 128.851 228.764 129.074C229.005 129.17 228.737 129.138 228.148 129.042C226.326 128.723 220.645 128.755 207.782 129.233C201.003 129.457 195.107 129.616 194.678 129.552C193.767 129.393 193.58 128.851 193.285 125.377L193.097 123.209H196.152C197.841 123.209 202.771 122.986 207.112 122.731C221.824 121.807 223.86 121.711 228.898 121.647L233.936 121.615L233.614 122.317ZM27.466 130.923C28.8326 132.485 29.4222 132.931 30.3333 133.122C31.3515 133.313 31.2712 133.345 29.6633 133.377C27.734 133.409 27.064 134.047 28.9398 134.047C29.6097 134.047 29.9581 134.174 29.8509 134.365C29.6097 134.812 24.2236 134.397 23.0981 133.855C22.5354 133.6 21.919 132.835 21.3295 131.752C19.7753 128.819 19.6949 128.947 22.9105 128.947H25.751L27.466 130.923ZM29.5562 130.317C29.9581 130.923 30.2529 131.528 30.2529 131.656C30.2529 132.007 28.9398 130.54 28.6183 129.807C28.1627 128.851 28.8326 129.202 29.5562 130.317ZM240.34 134.684V140.103L173.697 140.071C137.012 140.039 105.579 139.943 103.837 139.816L100.648 139.625L100.702 136.437C100.729 134.684 100.782 133.25 100.809 133.218C100.836 133.186 106.168 133.09 112.68 133.027C122.809 132.931 124.551 132.995 124.98 133.409C125.677 134.11 130.312 134.174 151.187 133.76C169.865 133.377 178.52 133.122 202.289 132.293C222.574 131.56 227.264 131.273 229.622 130.54C231.846 129.839 235.088 129.361 238.277 129.297L240.34 129.265V134.684ZM242.377 132.166C242.618 135.545 242.297 140.103 241.787 140.103C241.493 140.103 241.412 139.178 241.412 134.907C241.412 132.038 241.493 129.584 241.6 129.457C241.975 129.042 242.189 129.807 242.377 132.166ZM99.6032 135.577C99.6836 138.286 99.3888 139.912 98.7725 140.039C98.3437 140.135 98.3169 139.88 98.4777 137.33C98.6653 133.76 98.7993 133.027 99.2012 133.186C99.3888 133.25 99.5496 134.142 99.6032 135.577ZM67.5005 151.578C67.5005 151.737 67.3933 151.897 67.2326 151.897C67.0986 151.897 66.9646 151.737 66.9646 151.578C66.9646 151.387 67.0986 151.259 67.2326 151.259C67.3933 151.259 67.5005 151.387 67.5005 151.578ZM101.613 151.482C101.265 151.546 100.675 151.546 100.273 151.482C99.8444 151.418 100.139 151.355 100.863 151.355C101.613 151.355 101.935 151.418 101.613 151.482ZM79.5591 151.897C79.5591 152.056 79.4519 152.215 79.318 152.215C79.1572 152.215 78.9696 152.056 78.8892 151.897C78.8088 151.705 78.916 151.578 79.1304 151.578C79.3715 151.578 79.5591 151.705 79.5591 151.897ZM73.5834 153.363C73.503 153.458 73.2619 153.49 73.0743 153.395C72.8599 153.299 72.9403 153.203 73.2351 153.203C73.5298 153.172 73.6906 153.267 73.5834 153.363Z" fill="#84BF6F"/>
<path d="M25.9654 103.064C25.9654 103.797 27.2784 106.188 28.2967 107.303L29.047 108.164L33.8705 107.877C52.012 106.889 52.2263 106.857 52.2263 106.315C52.2263 105.742 50.9669 105.614 47.8316 105.869L44.5892 106.156L46.733 106.347L48.8767 106.507L46.0095 106.57C44.3213 106.602 43.1154 106.507 43.0618 106.315C43.0082 106.124 40.8109 106.124 36.6305 106.379C33.1202 106.602 30.3065 106.825 30.3601 106.889C30.4137 106.921 31.2176 107.112 32.1555 107.24L33.8705 107.495L31.8071 107.558C29.6634 107.59 27.9752 107.112 28.5915 106.666C28.8327 106.475 28.6183 105.901 27.7072 104.467C26.4745 102.458 25.9654 102.044 25.9654 103.064Z" fill="#84BF6F"/>
<path d="M97.2451 105.359C97.6202 105.487 98.6385 105.646 99.5228 105.71L101.131 105.805L99.1208 106.028C97.8078 106.188 98.6921 106.22 101.72 106.156C104.266 106.092 106.49 105.933 106.678 105.805C107.374 105.295 105.82 105.072 101.265 105.104C98.5313 105.104 96.8431 105.2 97.2451 105.359Z" fill="#84BF6F"/>
<path d="M37.756 116.197C37.4612 116.42 37.4612 116.515 37.7024 116.515C37.89 116.515 37.9704 116.643 37.89 116.834C37.7024 117.185 42.4186 117.217 45.3931 116.834C47.2421 116.611 47.2153 116.611 44.1872 116.515C41.3468 116.42 41.2396 116.388 42.8474 116.197C44.348 116.005 44.1336 115.973 41.3736 115.942C39.605 115.91 37.9704 116.037 37.756 116.197Z" fill="#84BF6F"/>
<path d="M329.252 118.555C329.118 119.416 329.065 120.914 329.065 121.902L329.092 123.687L329.36 122.125C329.494 121.265 329.574 119.767 329.52 118.778L329.44 116.993L329.252 118.555Z" fill="#84BF6F"/>
<path d="M152.259 124.293C144.086 124.675 141.46 125.058 146.578 125.185L149.365 125.249L146.551 125.44L143.738 125.632L147.221 125.663C153.063 125.727 160.78 125.281 160.995 124.867C161.129 124.612 162.388 124.42 164.666 124.357C167.024 124.261 167.614 124.293 166.515 124.452C165.068 124.675 165.148 124.707 167.533 124.675C169.061 124.643 170.133 124.516 170.133 124.325C170.133 123.878 161.986 123.847 152.259 124.293Z" fill="#84BF6F"/>
<path d="M49.5466 97.9959C49.5466 98.3784 49.7074 98.6653 49.9754 98.6653C50.2166 98.6653 50.3505 98.4422 50.2969 98.1234C50.163 97.3265 49.5466 97.2309 49.5466 97.9959Z" fill="#84BF6F"/>
<path d="M39.203 99.016C38.9351 99.5578 39.5514 100.163 39.9266 99.7172C40.2481 99.3347 40.0337 98.6653 39.6318 98.6653C39.4978 98.6653 39.3102 98.8247 39.203 99.016Z" fill="#84BF6F"/>
<path d="M69.6443 105.518C65.6783 106.475 63.4006 107.973 60.2654 111.702C57.8001 114.635 56.7282 116.675 55.6563 120.5C55.1472 122.348 55.04 123.4 55.04 126.715C55.04 130.253 55.1204 131.018 55.8171 133.537C57.6125 140.039 61.9 145.235 67.2861 147.466C72.2704 149.506 78.0049 148.773 82.6944 145.49C84.6505 144.119 87.7322 140.453 88.8576 138.19C90.519 134.812 91.1622 132.102 91.2962 127.64C91.4033 124.229 91.3229 123.273 90.8406 121.137C88.2949 110.172 78.9696 103.287 69.6443 105.518ZM80.5774 108.738C81.8637 109.407 81.8369 109.343 81.3277 110.3C80.899 111.065 80.8454 111.097 80.0951 110.618C79.6663 110.363 79.0232 109.662 78.6748 109.12C77.5494 107.303 77.5494 107.176 78.5944 107.718C79.1304 108.005 80.0147 108.451 80.5774 108.738ZM68.0633 108.451C67.7417 109.184 66.7234 110.268 65.9195 110.778C65.4104 111.097 65.2496 111.065 65.062 110.746C64.6333 109.949 64.928 109.343 66.1607 108.61C67.6345 107.718 68.4384 107.654 68.0633 108.451ZM77.2278 108.292C77.067 108.515 76.8794 108.929 76.799 109.184C76.7187 109.471 76.6383 109.28 76.6383 108.77C76.6115 108.164 76.7454 107.909 77.0402 107.909C77.3618 107.909 77.4154 108.037 77.2278 108.292ZM75.9951 110.363C75.9147 110.682 75.8612 110.491 75.8612 109.981C75.8612 109.439 75.9147 109.216 75.9951 109.407C76.0487 109.63 76.0487 110.077 75.9951 110.363ZM83.3107 111.128C83.3107 111.32 83.2035 111.352 83.0427 111.256C82.9087 111.16 82.7747 110.905 82.7747 110.746C82.7747 110.555 82.9087 110.523 83.0427 110.618C83.2035 110.714 83.3107 110.969 83.3107 111.128ZM70.6358 111.798C70.5554 112.021 70.5018 111.862 70.5018 111.415C70.5018 110.969 70.5554 110.81 70.6358 111.001C70.6894 111.224 70.6894 111.607 70.6358 111.798ZM79.1572 111.766C79.7467 112.148 80.2826 112.499 80.3362 112.563C80.4434 112.69 78.2997 116.228 77.2814 117.631L76.5847 118.587L76.7187 117.089C76.933 114.953 77.6833 111.097 77.8977 111.097C78.0049 111.097 78.5676 111.415 79.1572 111.766ZM60.8013 112.085C60.6137 112.435 60.4261 112.658 60.3458 112.563C60.2654 112.467 60.3458 112.18 60.5333 111.893C61.0157 111.224 61.1497 111.288 60.8013 112.085ZM65.3568 113.328C65.4908 113.328 65.6247 113.487 65.6247 113.678C65.6247 113.87 65.2764 113.71 64.8208 113.328C64.3385 112.913 64.0169 112.372 64.0169 111.957C64.0169 111.352 64.0973 111.383 64.5529 112.276C64.8476 112.85 65.196 113.328 65.3568 113.328ZM69.0815 113.073C69.5371 115.687 69.9122 118.523 69.8051 118.651C69.7247 118.778 67.4737 115.24 66.5894 113.583C66.1071 112.722 66.1071 112.722 67.0182 112.053C68.4384 111.033 68.76 111.192 69.0815 113.073ZM62.4895 113.742C61.9536 114.443 59.7562 115.718 59.5419 115.432C59.3543 115.208 60.4261 113.487 61.2569 112.69C61.9 112.085 61.9804 112.085 62.4627 112.563C62.9183 113.073 62.9183 113.137 62.4895 113.742ZM82.1048 112.69C81.8369 113.041 81.5689 113.264 81.4885 113.168C81.3009 112.977 81.9708 112.053 82.3192 112.053C82.4532 112.053 82.3728 112.34 82.1048 112.69ZM85.6152 113.2C86.6871 114.507 87.1962 115.559 86.8211 115.559C86.1779 115.559 84.9721 114.794 84.195 113.902C83.3911 112.977 83.3643 112.882 83.793 112.499C84.4629 111.862 84.6237 111.925 85.6152 113.2ZM75.7272 113.392C75.6468 113.647 75.5664 113.551 75.5664 113.2C75.5396 112.85 75.62 112.658 75.7004 112.786C75.7808 112.882 75.8076 113.168 75.7272 113.392ZM66.1071 117.727C67.045 119.352 67.7685 120.755 67.7149 120.85C67.6345 120.914 66.4019 120.117 64.9548 119.065C63.5078 118.045 62.1947 117.121 62.034 117.057C61.6052 116.866 63.5346 114.571 64.0169 114.667C64.2313 114.73 65.196 116.101 66.1071 117.727ZM83.4179 115.591C83.793 116.133 84.1146 116.738 84.1146 116.93C84.1146 117.153 83.2839 117.854 82.2924 118.492C81.3009 119.129 79.9611 120.053 79.3179 120.532C78.0585 121.456 78.0585 121.36 79.5055 118.906C80.9794 116.452 82.2388 114.603 82.5068 114.603C82.614 114.603 83.0427 115.049 83.4179 115.591ZM87.3302 116.675C87.3302 116.93 87.223 117.153 87.089 117.153C86.9551 117.153 86.7139 116.93 86.5263 116.675C86.2583 116.26 86.2851 116.197 86.7675 116.197C87.089 116.197 87.3302 116.388 87.3302 116.675ZM72.5919 117.472C72.5919 117.631 72.4847 117.79 72.324 117.79C72.19 117.79 72.056 117.631 72.056 117.472C72.056 117.28 72.19 117.153 72.324 117.153C72.4847 117.153 72.5919 117.28 72.5919 117.472ZM85.9904 118.747C85.3472 119.225 84.9989 119.097 85.5616 118.587C85.8564 118.332 86.1511 118.205 86.2315 118.3C86.3119 118.396 86.2047 118.587 85.9904 118.747ZM78.2461 118.97C78.5944 119.48 78.5676 119.512 78.1657 119.097C77.7101 118.683 77.5762 118.428 77.7905 118.428C77.8441 118.428 78.0585 118.683 78.2461 118.97ZM62.1411 119.225C62.5699 119.512 62.6503 119.671 62.3823 119.703C62.1679 119.703 61.7392 119.48 61.4444 119.225C60.8013 118.651 61.2569 118.619 62.1411 119.225ZM84.3826 119.384C84.3826 119.543 84.2486 119.703 84.0878 119.703C83.9538 119.703 83.9002 119.543 83.9806 119.384C84.061 119.193 84.195 119.065 84.2754 119.065C84.329 119.065 84.3826 119.193 84.3826 119.384ZM70.4482 120.787C70.4482 120.85 70.207 120.978 69.9122 121.073C69.6175 121.169 69.4299 121.105 69.5371 120.946C69.6711 120.659 70.4482 120.532 70.4482 120.787ZM72.056 121.966C72.056 122.157 71.9488 122.189 71.788 122.093C71.654 121.998 71.5201 121.743 71.5201 121.583C71.5201 121.392 71.654 121.36 71.788 121.456C71.9488 121.552 72.056 121.807 72.056 121.966ZM82.2656 122.476C82.614 122.986 82.5872 123.018 82.1852 122.603C81.7297 122.189 81.5957 121.934 81.8101 121.934C81.8637 121.934 82.078 122.189 82.2656 122.476ZM69.9122 124.197C69.9122 124.293 69.6175 124.325 69.2691 124.261C68.8404 124.165 68.6528 123.942 68.76 123.655C68.8672 123.337 69.0012 123.305 69.4031 123.623C69.6711 123.815 69.9122 124.102 69.9122 124.197ZM60.7209 125.217C60.8281 125.408 60.6137 125.44 60.1046 125.313C59.0059 124.994 58.7379 124.548 59.7294 124.739C60.185 124.803 60.6137 125.026 60.7209 125.217ZM81.9976 125.026C82.346 125.536 82.3192 125.568 81.9172 125.153C81.4617 124.739 81.3277 124.484 81.5421 124.484C81.5957 124.484 81.8101 124.739 81.9976 125.026ZM64.6869 125.122C64.6065 125.281 64.3921 125.44 64.2581 125.44C64.0973 125.44 64.0705 125.281 64.1509 125.122C64.2313 124.93 64.4457 124.803 64.5797 124.803C64.7404 124.803 64.7672 124.93 64.6869 125.122ZM77.9781 125.345C78.3265 125.855 78.2997 125.887 77.8977 125.472C77.4422 125.058 77.3082 124.803 77.5226 124.803C77.5762 124.803 77.7905 125.058 77.9781 125.345ZM87.0622 125.122C86.8479 125.281 86.4191 125.44 86.1244 125.44C85.6688 125.44 85.6688 125.377 85.9904 125.122C86.2047 124.962 86.6335 124.803 86.9283 124.803C87.3838 124.803 87.3838 124.867 87.0622 125.122ZM62.5967 125.632C62.5163 125.727 62.2751 125.759 62.0876 125.663C61.8732 125.568 61.9536 125.472 62.2483 125.472C62.5431 125.44 62.7039 125.536 62.5967 125.632ZM57.6125 126.62C57.9608 127.13 57.934 127.162 57.5321 126.747C57.2641 126.524 57.0497 126.269 57.0497 126.205C57.0497 125.95 57.2641 126.11 57.6125 126.62ZM57.9608 129.425C58.1752 130.732 57.8804 131.369 57.2105 131.082C56.621 130.795 56.2458 129.488 56.2458 127.735L56.2726 126.237L57.0229 127.225C57.4517 127.767 57.8536 128.755 57.9608 129.425ZM90.0099 128.245C90.0099 129.265 89.8491 130.349 89.6615 130.668C89.2328 131.369 88.4021 131.018 88.4021 130.158C88.4021 129.329 89.474 126.397 89.7687 126.397C89.9027 126.397 90.0099 127.225 90.0099 128.245ZM78.4069 126.907C78.3265 127.002 78.0853 127.034 77.8977 126.938C77.6833 126.843 77.7637 126.747 78.0585 126.747C78.3533 126.715 78.514 126.811 78.4069 126.907ZM81.8904 126.907C81.8101 127.002 81.5689 127.034 81.3813 126.938C81.1669 126.843 81.2473 126.747 81.5421 126.747C81.8369 126.715 81.9976 126.811 81.8904 126.907ZM87.1158 128.532C87.0622 129.393 86.9015 130.19 86.7943 130.349C86.6603 130.477 85.2133 130.062 83.5251 129.393C81.8637 128.755 80.631 128.15 80.7918 128.086C81.0597 127.99 85.9636 127.162 86.7943 127.066C87.1158 127.034 87.1694 127.353 87.1158 128.532ZM64.6869 127.927L65.4908 128.182L64.6869 128.532C64.2313 128.723 62.8915 129.329 61.7124 129.871L59.5151 130.827L59.3543 130.126C59.2739 129.743 59.1935 128.947 59.1935 128.341V127.257L61.5516 127.48C62.8379 127.576 64.2313 127.799 64.6869 127.927ZM63.2398 130.763C63.5882 131.273 63.5614 131.305 63.1594 130.891C62.8915 130.668 62.6771 130.413 62.6771 130.349C62.6771 130.094 62.8915 130.253 63.2398 130.763ZM64.2849 133.728C63.0522 135.13 61.9268 136.278 61.8196 136.278C61.5516 136.278 60.2654 134.015 60.2654 133.537C60.2654 133.218 65.2228 131.273 66.1607 131.242C66.3751 131.21 65.5444 132.357 64.2849 133.728ZM76.6115 131.815C76.3167 132.485 75.5396 132.708 75.5396 132.134C75.5396 131.943 75.7272 131.815 75.9415 131.815C76.1559 131.815 76.3435 131.656 76.3435 131.497C76.3435 131.305 76.4775 131.178 76.6115 131.178C76.799 131.178 76.799 131.369 76.6115 131.815ZM83.2035 132.198C84.7309 132.74 85.9904 133.313 85.9904 133.473C85.9904 134.015 84.8917 136.278 84.6237 136.278C84.3022 136.278 79.8807 131.21 80.1754 131.178C80.3094 131.178 81.6761 131.624 83.2035 132.198ZM79.3179 132.038C79.6663 132.548 79.6395 132.58 79.2376 132.166C78.9696 131.943 78.7552 131.688 78.7552 131.624C78.7552 131.369 78.9696 131.528 79.3179 132.038ZM59.0863 132.517C59.2203 132.772 59.0327 132.803 58.4432 132.676C57.8804 132.548 57.5857 132.58 57.5857 132.835C57.5857 133.027 57.5053 133.122 57.4249 132.995C57.3445 132.899 57.3445 132.676 57.4517 132.485C57.6661 132.007 58.8451 132.038 59.0863 132.517ZM88.1341 133.154C88.1341 133.345 87.9465 133.313 87.7322 133.09C87.5178 132.867 87.3302 132.548 87.3302 132.389C87.3302 132.198 87.5178 132.23 87.7322 132.453C87.9465 132.676 88.1341 132.995 88.1341 133.154ZM79.5859 134.588C79.9343 135.098 79.9075 135.13 79.5055 134.716C79.05 134.302 78.916 134.047 79.1304 134.047C79.184 134.047 79.3983 134.302 79.5859 134.588ZM78.3533 134.971C78.2729 135.162 77.9781 135.322 77.7369 135.322C77.3886 135.322 77.3886 135.258 77.8441 134.875C78.4069 134.397 78.648 134.429 78.3533 134.971ZM88.6701 134.716C88.6701 135.162 87.1158 138.413 86.7943 138.668C86.3655 138.987 86.2583 137.234 86.6335 136.118C87.089 134.843 88.6701 133.76 88.6701 134.716ZM59.5686 135.768C60.051 136.979 60.1314 138.509 59.7294 138.509C59.4079 138.509 57.8536 135.704 57.8536 135.098C57.8536 134.875 58.1484 134.684 58.4968 134.684C58.9523 134.684 59.2471 134.971 59.5686 135.768ZM82.2656 135.226C82.614 135.736 82.5872 135.768 82.1852 135.353C81.7297 134.939 81.5957 134.684 81.8101 134.684C81.8637 134.684 82.078 134.939 82.2656 135.226ZM82.1048 136.214C82.0244 136.31 81.8101 136.214 81.6225 135.991C81.3813 135.672 81.4081 135.64 81.7833 135.832C82.0512 135.927 82.1852 136.118 82.1048 136.214ZM64.8208 136.055C64.8208 136.118 64.3117 136.724 63.6954 137.393L62.5431 138.668L63.615 137.298C64.5797 136.055 64.8208 135.8 64.8208 136.055ZM77.1474 142.685C77.1474 143.035 76.8258 143.258 76.1559 143.418C74.2265 143.768 74.3337 144.023 74.4409 139.72L74.5213 135.8L75.8344 138.987C76.5579 140.74 77.1474 142.398 77.1474 142.685ZM79.8271 136.055C79.8271 136.118 79.5591 136.437 79.2644 136.788C78.6748 137.393 78.6748 137.393 79.05 136.66C79.3715 136.055 79.8271 135.704 79.8271 136.055ZM72.0292 141.505L72.056 143.705L70.9305 143.482C70.341 143.354 69.7247 143.195 69.5907 143.099C69.1619 142.78 69.4031 141.665 70.5286 138.955L71.654 136.214L71.8416 137.776C71.922 138.605 72.0292 140.294 72.0292 141.505ZM65.6247 136.915C65.6247 137.075 65.4372 137.234 65.2228 137.234C65.0084 137.234 64.8208 137.075 64.8208 136.915C64.8208 136.724 65.0084 136.597 65.2228 136.597C65.4372 136.597 65.6247 136.724 65.6247 136.915ZM72.7795 137.776C72.6991 138.095 72.6455 137.903 72.6455 137.393C72.6455 136.852 72.6991 136.628 72.7795 136.82C72.8331 137.043 72.8331 137.489 72.7795 137.776ZM84.195 139.21L84.6773 140.262L83.8734 139.147C83.4179 138.541 83.0427 137.935 83.0427 137.776C83.0427 137.266 83.6858 138.063 84.195 139.21ZM61.0425 139.561C61.0693 139.72 60.9621 139.72 60.8013 139.625C60.6673 139.529 60.5333 139.115 60.5601 138.732C60.5601 138.063 60.5869 138.063 60.8013 138.668C60.9353 139.019 61.0425 139.433 61.0425 139.561ZM65.8927 139.306C66.0803 139.593 66.1071 139.784 65.9463 139.784C65.8123 139.784 65.6247 139.561 65.5176 139.306C65.4372 139.051 65.4104 138.828 65.464 138.828C65.5176 138.828 65.7051 139.051 65.8927 139.306ZM73.2351 140.613C73.4762 141.378 73.4226 144.183 73.1547 144.374C73.0207 144.502 72.8599 143.577 72.8063 142.334C72.7259 140.198 72.8867 139.529 73.2351 140.613ZM78.5944 140.613C78.8356 141.378 78.648 141.442 78.2729 140.74C78.0853 140.39 78.0585 140.103 78.1925 140.103C78.3265 140.103 78.514 140.326 78.5944 140.613ZM67.2326 142.302C67.0986 142.653 66.8306 143.035 66.643 143.163C66.4554 143.322 66.4286 143.227 66.5626 142.94C67.1254 141.76 67.7417 141.187 67.2326 142.302ZM80.631 144.278C80.631 144.47 80.5238 144.502 80.363 144.406C80.229 144.31 80.0951 144.055 80.0951 143.896C80.0951 143.705 80.229 143.673 80.363 143.768C80.5238 143.864 80.631 144.119 80.631 144.278ZM71.1717 144.438C71.0913 144.533 70.8501 144.565 70.6626 144.47C70.4482 144.374 70.5286 144.278 70.8233 144.278C71.1181 144.247 71.2789 144.342 71.1717 144.438ZM71.6808 145.904C71.5737 147.052 71.6004 147.052 69.2959 146.446C67.2594 145.872 68.0901 145.012 70.7697 144.916C71.7612 144.884 71.788 144.916 71.6808 145.904ZM78.4604 145.49C78.9428 145.84 78.648 146 76.8258 146.478C75.1376 146.86 74.7357 146.765 74.7357 145.808C74.7357 145.267 74.9233 145.203 76.4239 145.203C77.335 145.203 78.2461 145.33 78.4604 145.49Z" fill="#84BF6F"/>
<path d="M265.663 105.678C258.053 106.73 252.104 113.041 250.068 122.253C249.478 124.962 249.478 129.712 250.068 132.453C251.059 136.883 253.471 141.378 256.365 144.087C258.643 146.255 262.153 148.263 264.484 148.709C269.79 149.761 275.766 147.88 279.705 143.896C284.019 139.497 286.458 132.644 286.056 125.918C285.868 122.317 285.386 120.181 284.1 117.153C282.76 113.965 279.33 109.822 276.65 108.164C273.354 106.124 269.201 105.168 265.663 105.678ZM262.662 109.12C262.233 109.758 261.483 110.555 261.001 110.905C260.17 111.479 260.143 111.479 259.768 110.905C259.554 110.555 259.393 110.14 259.366 109.981C259.366 109.662 263.145 107.59 263.359 107.813C263.439 107.877 263.118 108.451 262.662 109.12ZM276.489 109.726C276.677 109.885 275.685 111.415 275.391 111.415C275.016 111.415 272.497 108.387 272.497 107.941C272.497 107.718 275.793 109.184 276.489 109.726ZM264.19 108.547C264.19 108.706 264.082 108.865 263.922 108.865C263.788 108.865 263.654 108.706 263.654 108.547C263.654 108.355 263.788 108.228 263.922 108.228C264.082 108.228 264.19 108.355 264.19 108.547ZM272.229 108.706C272.229 108.961 272.121 109.184 271.961 109.184C271.827 109.184 271.693 108.961 271.693 108.706C271.693 108.451 271.827 108.228 271.961 108.228C272.121 108.228 272.229 108.451 272.229 108.706ZM270.808 110.842C270.728 111.097 270.648 111.001 270.648 110.65C270.621 110.3 270.701 110.108 270.782 110.236C270.862 110.332 270.889 110.618 270.808 110.842ZM265.476 112.531C265.476 113.455 265.476 113.455 265.261 112.69C265.154 112.244 265.047 111.543 265.047 111.097C265.02 110.363 265.047 110.363 265.261 110.937C265.395 111.288 265.476 111.989 265.476 112.531ZM277.776 111.288C277.695 111.383 277.454 111.415 277.266 111.32C277.052 111.224 277.132 111.128 277.427 111.128C277.722 111.097 277.883 111.192 277.776 111.288ZM264.082 115.24C264.806 119.161 264.806 119.161 264.431 118.874C264.029 118.587 260.974 113.647 260.974 113.296C260.974 112.882 262.635 111.702 263.091 111.798C263.359 111.862 263.68 113.009 264.082 115.24ZM274.051 112.372C274.828 112.945 274.882 113.073 274.614 113.742C274.185 114.73 271.371 119.097 271.264 118.97C271.184 118.906 271.398 117.248 271.72 115.304C272.336 111.352 272.47 111.224 274.051 112.372ZM257.544 113.36C258.053 113.742 255.454 115.878 254.462 115.878C253.846 115.878 254.141 115.24 255.615 113.328C256.66 111.989 256.74 111.957 257.035 112.531C257.169 112.882 257.41 113.264 257.544 113.36ZM281.608 115.623C281.608 116.388 279.705 115.463 278.714 114.188C278.097 113.423 278.097 113.392 278.58 112.69L279.062 112.021L280.348 113.678C281.045 114.603 281.608 115.463 281.608 115.623ZM270.54 113.073C270.46 113.328 270.38 113.232 270.38 112.882C270.353 112.531 270.433 112.34 270.514 112.467C270.594 112.563 270.621 112.85 270.54 113.073ZM260.036 113.647C260.116 113.806 260.009 113.965 259.795 113.965C259.581 113.965 259.313 113.806 259.232 113.647C259.152 113.455 259.259 113.328 259.473 113.328C259.688 113.328 259.956 113.455 260.036 113.647ZM276.65 113.647C276.57 113.806 276.302 113.965 276.087 113.965C275.873 113.965 275.766 113.806 275.846 113.647C275.927 113.455 276.195 113.328 276.409 113.328C276.623 113.328 276.731 113.455 276.65 113.647ZM260.786 118.077C261.778 119.83 262.582 121.328 262.582 121.424C262.582 121.52 261.269 120.627 259.634 119.48C258.026 118.332 256.686 117.28 256.686 117.121C256.686 116.866 258.589 114.922 258.83 114.922C258.911 114.922 259.768 116.356 260.786 118.077ZM278.097 116.005C278.58 116.611 278.901 117.248 278.821 117.408C278.74 117.599 277.91 118.237 276.972 118.842C276.061 119.48 274.855 120.34 274.319 120.787C273.756 121.233 273.301 121.52 273.301 121.424C273.301 120.882 276.731 114.922 277.025 114.922C277.132 114.922 277.615 115.4 278.097 116.005ZM281.742 116.866C282.036 117.408 281.715 117.535 281.34 116.993C281.125 116.707 281.125 116.515 281.286 116.515C281.447 116.515 281.661 116.675 281.742 116.866ZM256.419 119.384C256.767 119.639 256.767 119.703 256.365 119.703C256.124 119.703 255.829 119.543 255.749 119.384C255.534 118.97 255.883 118.97 256.419 119.384ZM280 119.225C280 119.288 279.651 119.575 279.196 119.862C278.767 120.149 278.392 120.245 278.392 120.085C278.392 119.926 278.66 119.639 279.008 119.448C279.678 119.065 280 119.002 280 119.225ZM254.543 120.022C254.543 120.181 254.355 120.34 254.114 120.34C253.9 120.34 253.792 120.181 253.873 120.022C253.953 119.83 254.141 119.703 254.302 119.703C254.436 119.703 254.543 119.83 254.543 120.022ZM269.844 120.755C269.576 121.042 269.549 121.01 269.71 120.563C269.79 120.245 269.951 120.085 270.031 120.181C270.112 120.277 270.031 120.532 269.844 120.755ZM267.861 121.36C267.78 121.583 267.727 121.424 267.727 120.978C267.727 120.532 267.78 120.372 267.861 120.563C267.914 120.787 267.914 121.169 267.861 121.36ZM272.095 121.01C272.389 121.552 272.068 121.679 271.693 121.137C271.478 120.85 271.478 120.659 271.639 120.659C271.8 120.659 272.014 120.818 272.095 121.01ZM260.438 123.209C260.438 123.368 260.331 123.528 260.17 123.528C260.036 123.528 259.902 123.368 259.902 123.209C259.902 123.018 260.036 122.89 260.17 122.89C260.331 122.89 260.438 123.018 260.438 123.209ZM255.213 125.44L255.749 125.727H255.213C254.918 125.727 254.436 125.6 254.141 125.44L253.605 125.153H254.141C254.436 125.153 254.918 125.281 255.213 125.44ZM281.742 125.44C281.447 125.6 280.964 125.727 280.67 125.727H280.134L280.67 125.44C280.964 125.281 281.447 125.153 281.742 125.153H282.277L281.742 125.44ZM254.141 126.715C254.06 126.875 253.846 127.034 253.712 127.034C253.551 127.034 253.524 126.875 253.605 126.715C253.685 126.524 253.9 126.397 254.034 126.397C254.194 126.397 254.221 126.524 254.141 126.715ZM252.667 129.871C252.962 131.114 252.828 131.497 252.158 131.497C251.327 131.497 251.059 130.795 251.059 128.66V126.588L251.729 127.672C252.104 128.277 252.506 129.265 252.667 129.871ZM259.822 127.225C259.741 127.321 259.5 127.353 259.313 127.257C259.098 127.162 259.179 127.066 259.473 127.066C259.768 127.034 259.929 127.13 259.822 127.225ZM284.823 128.437C284.823 130.508 284.448 131.497 283.617 131.497C283.242 131.497 282.947 131.305 282.947 131.082C282.947 129.775 284.019 127.034 284.555 127.034C284.716 127.034 284.823 127.672 284.823 128.437ZM281.876 128.978C281.768 129.68 281.554 130.413 281.42 130.572C281.286 130.732 280.429 130.572 279.33 130.19C278.285 129.839 276.999 129.393 276.463 129.202C275.9 129.01 275.444 128.755 275.444 128.66C275.444 128.437 281.581 127.417 281.902 127.576C282.01 127.608 281.983 128.245 281.876 128.978ZM257.678 128.022C258.83 128.213 259.875 128.5 259.982 128.628C260.25 128.915 254.623 130.955 254.275 130.7C253.953 130.477 253.632 128.437 253.873 128.022C254.087 127.576 255.079 127.576 257.678 128.022ZM253.39 129.967C253.31 130.222 253.23 130.126 253.23 129.775C253.203 129.425 253.283 129.233 253.364 129.361C253.444 129.457 253.471 129.743 253.39 129.967ZM282.599 129.967C282.519 130.222 282.438 130.126 282.438 129.775C282.411 129.425 282.492 129.233 282.572 129.361C282.653 129.457 282.679 129.743 282.599 129.967ZM259.125 130.763C259.473 131.273 259.447 131.305 259.045 130.891C258.777 130.668 258.562 130.413 258.562 130.349C258.562 130.094 258.777 130.253 259.125 130.763ZM263.841 131.879C263.761 132.134 263.68 132.038 263.68 131.688C263.654 131.337 263.734 131.146 263.814 131.273C263.895 131.369 263.922 131.656 263.841 131.879ZM272.229 131.688C272.229 131.943 272.095 132.07 271.961 131.975C271.8 131.847 271.746 131.624 271.827 131.465C272.068 131.018 272.229 131.114 272.229 131.688ZM259.125 134.078C257.839 135.545 256.713 136.597 256.445 136.533C256.231 136.469 255.749 135.832 255.4 135.098L254.784 133.76L257.544 132.772C259.071 132.198 260.438 131.72 260.572 131.656C261.43 131.305 261.162 131.783 259.125 134.078ZM265.422 132.357C265.235 132.58 264.726 132.134 264.726 131.752C264.726 131.56 264.886 131.56 265.127 131.815C265.369 132.038 265.476 132.293 265.422 132.357ZM277.454 132.453C279.759 133.282 280.804 133.76 280.804 133.983C280.804 134.302 279.437 136.915 279.276 136.915C279.062 136.915 276.65 134.206 275.444 132.644C274.721 131.688 274.64 131.465 275.042 131.592C275.337 131.72 276.436 132.102 277.454 132.453ZM280.268 131.975C280.268 132.23 280.161 132.453 280 132.453C279.866 132.453 279.812 132.23 279.893 131.975C280 131.72 280.107 131.497 280.161 131.497C280.214 131.497 280.268 131.72 280.268 131.975ZM253.819 132.995C253.632 133.058 253.256 133.058 253.015 132.995C252.747 132.899 252.908 132.835 253.337 132.835C253.792 132.835 253.98 132.899 253.819 132.995ZM254.516 136.82C254.757 137.872 254.65 139.147 254.275 139.147C254.087 139.147 252.399 135.608 252.399 135.226C252.399 135.13 252.667 135.003 253.015 134.939C253.712 134.78 254.194 135.385 254.516 136.82ZM262.582 134.971C262.582 135.353 262.046 135.768 261.858 135.545C261.671 135.322 262.019 134.684 262.341 134.684C262.475 134.684 262.582 134.812 262.582 134.971ZM283.483 135.226C283.483 135.8 281.527 139.115 281.286 138.955C280.911 138.668 281.179 136.437 281.688 135.513C282.01 134.939 282.277 134.812 282.787 134.907C283.162 135.003 283.483 135.162 283.483 135.226ZM267.861 136.342C267.78 136.597 267.7 136.501 267.7 136.15C267.673 135.8 267.754 135.608 267.834 135.736C267.914 135.832 267.941 136.118 267.861 136.342ZM274.104 136.246C273.81 136.915 273.301 137.425 273.301 137.043C273.301 136.788 274.104 135.64 274.292 135.64C274.346 135.64 274.265 135.927 274.104 136.246ZM278.124 136.756C278.472 137.202 278.687 137.553 278.606 137.553C278.553 137.553 278.204 137.202 277.856 136.756C277.508 136.31 277.293 135.959 277.374 135.959C277.427 135.959 277.776 136.31 278.124 136.756ZM258.294 136.373C258.294 136.437 258.026 136.756 257.732 137.107C257.142 137.712 257.142 137.712 257.464 136.979C257.732 136.405 258.294 135.991 258.294 136.373ZM266.709 140.167L266.869 143.928H265.824C264.538 143.928 263.922 143.673 263.922 143.131C263.922 142.717 266.36 136.214 266.467 136.342C266.494 136.405 266.601 138.127 266.709 140.167ZM270.701 139.784C271.854 142.876 271.907 143.163 271.478 143.545C271.237 143.768 270.594 143.928 270.085 143.864L269.147 143.768L269.067 141.378C268.986 139.21 269.201 136.055 269.415 136.342C269.442 136.373 270.031 137.935 270.701 139.784ZM262.85 137.393C263.198 137.84 263.412 138.19 263.332 138.19C263.279 138.19 262.93 137.84 262.582 137.393C262.233 136.947 262.019 136.597 262.099 136.597C262.153 136.597 262.501 136.947 262.85 137.393ZM257.892 138.509C257.624 138.86 257.356 139.083 257.276 138.987C257.196 138.892 257.356 138.541 257.624 138.19C257.892 137.84 258.16 137.617 258.241 137.712C258.321 137.808 258.16 138.158 257.892 138.509ZM260.197 138.095C260.545 138.605 260.518 138.637 260.116 138.222C259.849 137.999 259.634 137.744 259.634 137.68C259.634 137.425 259.849 137.585 260.197 138.095ZM274.908 138.35C274.721 138.637 274.506 138.764 274.453 138.7C274.265 138.477 274.64 137.872 274.962 137.872C275.123 137.872 275.123 138.063 274.908 138.35ZM278.392 138.668C278.928 139.433 278.553 139.561 277.99 138.828C277.722 138.477 277.642 138.19 277.776 138.19C277.936 138.19 278.204 138.413 278.392 138.668ZM260.304 140.135C260.599 140.677 260.277 140.804 259.902 140.262C259.688 139.975 259.688 139.784 259.849 139.784C260.009 139.784 260.224 139.943 260.304 140.135ZM268.209 142.621C268.209 143.29 268.129 144.342 268.022 144.916C267.834 145.872 267.78 145.713 267.646 143.768C267.566 142.525 267.539 141.442 267.62 141.282C267.861 140.708 268.209 141.505 268.209 142.621ZM262.126 142.366C261.858 142.908 261.483 143.513 261.269 143.705C260.813 144.151 260.974 143.737 261.831 142.238C262.528 141.059 262.716 141.155 262.126 142.366ZM273.944 142.621C273.783 142.812 273.301 142.015 273.301 141.537C273.327 141.346 273.488 141.505 273.702 141.824C273.917 142.175 274.024 142.525 273.944 142.621ZM258.83 143.29C258.83 143.45 258.723 143.609 258.562 143.609C258.428 143.609 258.294 143.45 258.294 143.29C258.294 143.099 258.428 142.972 258.562 142.972C258.723 142.972 258.83 143.099 258.83 143.29ZM277.32 143.29C277.32 143.45 277.266 143.609 277.213 143.609C277.132 143.609 276.999 143.45 276.918 143.29C276.838 143.099 276.891 142.972 277.025 142.972C277.186 142.972 277.32 143.099 277.32 143.29ZM274.935 144.151C275.284 144.661 275.257 144.693 274.855 144.278C274.587 144.055 274.372 143.8 274.372 143.737C274.372 143.482 274.587 143.641 274.935 144.151ZM265.985 144.757C265.905 144.852 265.663 144.884 265.476 144.788C265.261 144.693 265.342 144.597 265.637 144.597C265.931 144.565 266.092 144.661 265.985 144.757ZM270.272 144.757C270.192 144.852 269.951 144.884 269.763 144.788C269.549 144.693 269.629 144.597 269.924 144.597C270.219 144.565 270.38 144.661 270.272 144.757ZM266.28 146.605C266.36 147.275 266.28 147.466 266.012 147.37C265.824 147.275 264.967 147.02 264.136 146.797C261.805 146.159 262.126 145.522 264.726 145.617C266.146 145.681 266.199 145.713 266.28 146.605ZM273.033 145.84C273.354 146.063 273.301 146.191 272.765 146.414C272.389 146.573 271.666 146.828 271.157 146.924C270.648 147.052 270.005 147.243 269.763 147.307C269.12 147.53 269.147 146.956 269.817 146.159C270.38 145.49 272.282 145.267 273.033 145.84ZM268.209 146.797C268.209 146.956 267.968 147.115 267.673 147.115C267.378 147.115 267.137 146.956 267.137 146.797C267.137 146.605 267.378 146.478 267.673 146.478C267.968 146.478 268.209 146.605 268.209 146.797Z" fill="#84BF6F"/>
<path d="M39.7925 121.838C39.7122 121.934 39.6318 122.508 39.6318 123.113C39.6318 123.815 39.4978 124.165 39.2566 124.165C39.0154 124.165 38.935 123.942 39.0154 123.592C39.1494 122.922 37.7292 121.902 37.5416 122.54C37.488 122.731 37.3004 122.89 37.0861 122.89C36.5233 122.89 36.041 124.612 36.4161 125.408C36.7645 126.237 37.0325 126.269 36.8181 125.472C36.7377 125.09 36.8181 124.803 37.0861 124.675C37.4076 124.548 37.4612 124.675 37.3272 125.249C37.1665 126.11 37.7024 126.492 38.6939 126.205C39.3102 126.014 39.7658 125.026 40.3017 122.667C40.4625 121.998 40.1409 121.456 39.7925 121.838ZM38.2651 123.56C37.8364 123.878 37.6488 123.687 37.89 123.241C37.9704 123.05 38.1847 122.986 38.3455 123.082C38.5063 123.209 38.4795 123.368 38.2651 123.56Z" fill="#84BF6F"/>
<path d="M113.951 180.94C115.327 181.197 116.459 181.885 117.346 183.005C118.232 184.125 118.676 185.409 118.676 186.855C118.676 188.162 118.349 189.317 117.696 190.32C117.066 191.3 116.144 192.07 114.931 192.63C113.717 193.19 112.282 193.47 110.626 193.47H100.091V169.04H110.171C111.827 169.04 113.251 169.309 114.441 169.845C115.654 170.382 116.564 171.129 117.171 172.085C117.801 173.042 118.116 174.127 118.116 175.34C118.116 176.764 117.731 177.954 116.961 178.91C116.214 179.867 115.211 180.544 113.951 180.94ZM104.991 179.12H109.471C110.637 179.12 111.536 178.864 112.166 178.35C112.796 177.814 113.111 177.055 113.111 176.075C113.111 175.095 112.796 174.337 112.166 173.8C111.536 173.264 110.637 172.995 109.471 172.995H104.991V179.12ZM109.926 189.48C111.116 189.48 112.037 189.2 112.691 188.64C113.367 188.08 113.706 187.287 113.706 186.26C113.706 185.21 113.356 184.394 112.656 183.81C111.956 183.204 111.011 182.9 109.821 182.9H104.991V189.48H109.926ZM127.481 169.04V193.47H122.581V169.04H127.481ZM146.182 180.94C147.559 181.197 148.69 181.885 149.577 183.005C150.464 184.125 150.907 185.409 150.907 186.855C150.907 188.162 150.58 189.317 149.927 190.32C149.297 191.3 148.375 192.07 147.162 192.63C145.949 193.19 144.514 193.47 142.857 193.47H132.322V169.04H142.402C144.059 169.04 145.482 169.309 146.672 169.845C147.885 170.382 148.795 171.129 149.402 172.085C150.032 173.042 150.347 174.127 150.347 175.34C150.347 176.764 149.962 177.954 149.192 178.91C148.445 179.867 147.442 180.544 146.182 180.94ZM137.222 179.12H141.702C142.869 179.12 143.767 178.864 144.397 178.35C145.027 177.814 145.342 177.055 145.342 176.075C145.342 175.095 145.027 174.337 144.397 173.8C143.767 173.264 142.869 172.995 141.702 172.995H137.222V179.12ZM142.157 189.48C143.347 189.48 144.269 189.2 144.922 188.64C145.599 188.08 145.937 187.287 145.937 186.26C145.937 185.21 145.587 184.394 144.887 183.81C144.187 183.204 143.242 182.9 142.052 182.9H137.222V189.48H142.157ZM159.712 169.04V193.47H154.812V169.04H159.712ZM163.363 181.22C163.363 178.817 163.9 176.67 164.973 174.78C166.07 172.867 167.552 171.385 169.418 170.335C171.308 169.262 173.42 168.725 175.753 168.725C178.483 168.725 180.875 169.425 182.928 170.825C184.982 172.225 186.417 174.162 187.233 176.635H181.598C181.038 175.469 180.245 174.594 179.218 174.01C178.215 173.427 177.048 173.135 175.718 173.135C174.295 173.135 173.023 173.474 171.903 174.15C170.807 174.804 169.943 175.737 169.313 176.95C168.707 178.164 168.403 179.587 168.403 181.22C168.403 182.83 168.707 184.254 169.313 185.49C169.943 186.704 170.807 187.649 171.903 188.325C173.023 188.979 174.295 189.305 175.718 189.305C177.048 189.305 178.215 189.014 179.218 188.43C180.245 187.824 181.038 186.937 181.598 185.77H187.233C186.417 188.267 184.982 190.215 182.928 191.615C180.898 192.992 178.507 193.68 175.753 193.68C173.42 193.68 171.308 193.155 169.418 192.105C167.552 191.032 166.07 189.55 164.973 187.66C163.9 185.77 163.363 183.624 163.363 181.22ZM206.399 188.815H196.669L195.059 193.47H189.914L198.699 169.005H204.404L213.189 193.47H208.009L206.399 188.815ZM205.069 184.895L201.534 174.675L197.999 184.895H205.069ZM229.072 193.47L223.682 183.95H221.372V193.47H216.472V169.04H225.642C227.532 169.04 229.142 169.379 230.472 170.055C231.802 170.709 232.794 171.607 233.447 172.75C234.124 173.87 234.462 175.13 234.462 176.53C234.462 178.14 233.996 179.599 233.062 180.905C232.129 182.189 230.741 183.075 228.897 183.565L234.742 193.47H229.072ZM221.372 180.275H225.467C226.797 180.275 227.789 179.96 228.442 179.33C229.096 178.677 229.422 177.779 229.422 176.635C229.422 175.515 229.096 174.652 228.442 174.045C227.789 173.415 226.797 173.1 225.467 173.1H221.372V180.275Z" fill="white"/>
</g>
<defs>
<clipPath id="clip0_101_56">
<rect width="343" height="204" fill="white"/>
</clipPath>
</defs>
</svg>
